<?xml version="1.0" encoding="UTF-8" standalone="no"?>
<svg
   xmlns:dc="http://purl.org/dc/elements/1.1/"
   xmlns:cc="http://creativecommons.org/ns#"
   xmlns:rdf="http://www.w3.org/1999/02/22-rdf-syntax-ns#"
   xmlns:svg="http://www.w3.org/2000/svg"
   xmlns="http://www.w3.org/2000/svg"
   xmlns:sodipodi="http://sodipodi.sourceforge.net/DTD/sodipodi-0.dtd"
   xmlns:inkscape="http://www.inkscape.org/namespaces/inkscape"
   width="210mm"
   height="297mm"
   viewBox="0 0 210 297"
   version="1.1"
   id="svg8"
   inkscape:version="1.0.1 (3bc2e813f5, 2020-09-07)"
   sodipodi:docname="friend.svg">
  <defs
     id="defs2" />
  <sodipodi:namedview
     id="base"
     pagecolor="#ffffff"
     bordercolor="#666666"
     borderopacity="1.0"
     inkscape:pageopacity="0.0"
     inkscape:pageshadow="2"
     inkscape:zoom="0.49497475"
     inkscape:cx="334.36527"
     inkscape:cy="648.98345"
     inkscape:document-units="mm"
     inkscape:current-layer="layer1"
     inkscape:document-rotation="0"
     showgrid="false"
     inkscape:window-width="1346"
     inkscape:window-height="729"
     inkscape:window-x="910"
     inkscape:window-y="682"
     inkscape:window-maximized="0" />
  <metadata
     id="metadata5">
    <rdf:RDF>
      <cc:Work
         rdf:about="">
        <dc:format>image/svg+xml</dc:format>
        <dc:type
           rdf:resource="http://purl.org/dc/dcmitype/StillImage" />
        <dc:title></dc:title>
      </cc:Work>
    </rdf:RDF>
  </metadata>
  <g
     inkscape:label="Lag 1"
     inkscape:groupmode="layer"
     id="layer1">
    <g
       id="g119"
       inkscape:export-xdpi="5.7586842"
       inkscape:export-ydpi="5.7586842"
       transform="rotate(90,116.70632,152.86392)">
      <rect
         style="fill:#008000;stroke-width:0.214094"
         id="rect96"
         width="145.04396"
         height="141.14336"
         x="44.184338"
         y="82.292244"
         inkscape:export-xdpi="5.7586842"
         inkscape:export-ydpi="5.7586842" />
      <circle
         style="fill:#e9afaf;stroke-width:0.264583"
         id="path10"
         cx="109.15887"
         cy="152.60884"
         r="57.69339"
         inkscape:export-xdpi="5.7586842"
         inkscape:export-ydpi="5.7586842" />
      <circle
         style="fill:#f2f2f2;stroke-width:0.264583"
         id="path12"
         cx="81.783897"
         cy="131.29764"
         r="13.316404"
         inkscape:export-xdpi="5.7586842"
         inkscape:export-ydpi="5.7586842" />
      <circle
         style="fill:#f2f2f2;stroke-width:0.264583"
         id="path12-3"
         cx="135.44809"
         cy="130.70612"
         r="13.316405"
         inkscape:export-xdpi="5.7586842"
         inkscape:export-ydpi="5.7586842" />
      <circle
         style="fill:#000000;stroke-width:0.264583"
         id="path29"
         cx="136.32991"
         cy="127.3451"
         r="3.120703"
         inkscape:export-xdpi="5.7586842"
         inkscape:export-ydpi="5.7586842" />
      <circle
         style="fill:#000000;stroke-width:0.264583"
         id="path29-6"
         cx="83.910713"
         cy="128.13393"
         r="3.120703"
         inkscape:export-xdpi="5.7586842"
         inkscape:export-ydpi="5.7586842" />
      <ellipse
         style="fill:#ff8080;stroke-width:0.264583"
         id="path46"
         cx="107.37147"
         cy="103.62357"
         rx="6.8668981"
         ry="13.374345"
         inkscape:export-xdpi="5.7586842"
         inkscape:export-ydpi="5.7586842" />
      <path
         style="fill:#ffb380;stroke-width:0.264583"
         id="path48"
         d="m 71.90188,154.18009 c 3.67489,0.0716 7.346847,-0.18973 11.022118,-0.19706 1.293524,-0.003 2.586855,0.032 3.880281,0.048 4.523362,0.14733 9.035495,0.58622 13.507231,1.27999 1.86802,0.28981 3.57032,0.61848 5.42655,0.96208 4.85001,1.01673 9.77799,1.57876 14.69533,2.1531 2.23446,0.16735 4.44377,0.63454 6.67918,0.78859 0.92266,0.0636 1.29336,0.0259 2.21666,-0.007 1.18716,-0.0711 2.36264,-0.26087 3.55217,-0.29838 0.67846,-0.0214 1.01012,-0.005 1.67515,0.0114 1.67984,0.10011 3.36545,0.13271 5.04695,0.0626 1.90303,-0.16272 3.75474,-0.67244 5.58384,-1.19952 0.77554,-0.24835 0.4166,-0.11975 1.07992,-0.37705 0,0 2.06003,-1.62812 2.06003,-1.62812 v 0 c -0.70448,0.32882 -0.32435,0.16985 -1.14535,0.46483 -1.81697,0.57063 -3.65529,1.12607 -5.56565,1.26448 -1.67632,0.0716 -3.35171,0.0741 -5.02536,-0.061 -0.85962,-0.003 -1.73055,-0.0381 -2.58897,0.0164 -0.65636,0.0417 -1.05901,0.13672 -1.71714,0.21972 -0.34206,0.0431 -0.68548,0.0746 -1.02821,0.11196 -3.10803,0.14853 -6.21136,-0.13708 -9.30263,-0.44693 -4.94615,-0.56135 -9.89376,-1.14144 -14.78668,-2.07508 -2.42803,-0.4168 -3.07708,-0.54997 -5.55054,-0.88404 -4.563774,-0.61639 -9.158734,-0.95948 -13.760487,-1.11831 -1.258451,-0.0427 -2.516579,-0.0962 -3.775347,-0.12815 -3.889492,-0.0988 -2.68319,0.0141 -6.276428,-0.16567 -1.308563,-0.0655 -1.954482,-0.0967 -3.143824,-0.28595 -0.168727,-0.0268 -0.333888,-0.0726 -0.500832,-0.10896 0,0 -2.257962,1.5984 -2.257962,1.5984 z"
         inkscape:export-xdpi="5.7586842"
         inkscape:export-ydpi="5.7586842" />
      <path
         style="fill:#ffb380;stroke-width:0.264583"
         id="path68"
         d="m 68.951554,158.48679 c 0.253486,0.0312 0.50769,0.0569 0.760457,0.0935 1.789755,0.25875 1.411946,0.24113 3.45431,0.57294 3.552349,0.57713 2.220195,0.31803 6.130502,0.92011 1.2476,0.19211 2.49252,0.40121 3.738779,0.60182 5.708486,0.91089 11.438247,1.75406 17.198838,2.26521 3.30416,0.29318 5.48706,0.37487 8.79187,0.54462 1.4663,0.0567 2.93243,0.11796 4.3989,0.17005 3.52898,0.12537 4.93975,0.17939 8.44017,0.18529 3.5659,0.006 7.12425,-0.12226 10.68644,-0.26441 2.42576,-0.18559 4.87329,-0.1127 7.2967,-0.3386 0.72223,-0.0673 1.40525,-0.19641 2.12079,-0.31639 0.93419,-0.16433 1.86727,-0.33533 2.80339,-0.48849 0.48445,-0.0793 0.83664,-0.14764 1.33059,-0.15191 0.26902,-0.002 0.53753,0.0239 0.80629,0.0359 1.28102,0.20414 0.6456,0.0747 1.90623,0.38851 0,0 2.01134,-1.38534 2.01134,-1.38534 v 0 c -1.25388,-0.3329 -0.62967,-0.17837 -1.87234,-0.46465 -0.64441,-0.0735 -0.85199,-0.13675 -1.48302,-0.0652 -0.23609,0.0268 -0.46713,0.0873 -0.70023,0.13335 -0.96418,0.1905 -1.92464,0.40062 -2.89407,0.564 -0.71357,0.11211 -1.42461,0.24014 -2.13886,0.34779 -2.63774,0.39755 -5.3033,0.59046 -7.95738,0.83757 -1.10782,0.076 -2.21469,0.1671 -3.32343,0.2281 -2.18159,0.12003 -5.48502,0.22965 -7.64754,0.25417 -3.4026,0.0386 -5.09585,-0.009 -8.51717,-0.12501 -1.46374,-0.0498 -2.92686,-0.11662 -4.3903,-0.17494 -3.69296,-0.17395 -5.10867,-0.20241 -8.80129,-0.53059 -5.692914,-0.50596 -11.359977,-1.32879 -16.9699,-2.4164 -4.344321,-0.83657 -8.728416,-1.58906 -12.939906,-2.97691 0,0 -2.24016,1.55598 -2.24016,1.55598 z"
         inkscape:export-xdpi="5.7586842"
         inkscape:export-ydpi="5.7586842" />
      <path
         style="fill:#ffb380;stroke-width:0.264583"
         id="path70"
         d="m 58.894958,163.47665 c 0.527156,0.0239 1.054777,0.0391 1.581473,0.0717 2.484226,0.15354 3.381647,0.25571 6.026885,0.52461 5.071153,0.5155 10.123218,1.13796 15.178093,1.79252 6.688701,0.89655 13.403979,1.59464 20.137951,2.04248 2.83523,0.18856 5.58918,0.31049 8.4244,0.44817 1.2153,0.0459 2.43038,0.0978 3.64589,0.13759 1.11832,0.0366 2.23664,0.0806 3.35551,0.0913 2.28402,0.0219 4.38769,-0.058 6.67244,-0.12641 5.36461,-0.16065 1.55264,-0.0603 6.80636,-0.18866 1.03698,-0.018 2.07392,-0.0392 3.11096,-0.054 2.21543,-0.0318 3.07702,-0.0398 5.21548,-0.027 1.6236,0.01 3.24472,0.0424 4.86834,0.0265 2.07713,-0.0628 4.13746,-0.36103 6.20056,-0.59101 0.56153,-0.0551 1.11073,-0.19964 1.67443,-0.23598 0.21239,-0.0137 1.34121,-0.0427 1.50423,-0.0472 0.26092,-0.0112 0.52185,-0.0224 0.78278,-0.0336 0,0 2.03219,-1.49169 2.03219,-1.49169 v 0 c -0.25991,0.0143 -0.51982,0.0286 -0.77973,0.0429 -0.25586,-0.001 -0.5118,0.004 -0.76756,-0.004 -0.077,-0.002 -0.91913,-0.0588 -1.08014,-0.0459 -0.44083,0.0353 -0.866,0.24892 -1.30878,0.27706 -2.13211,0.34061 -4.26556,0.7155 -6.42824,0.79147 -4.60616,0.21565 -9.215,0.37001 -13.82387,0.51452 -6.90008,0.21399 -13.80397,0.4403 -20.70773,0.26197 -1.37818,-0.034 -2.75673,-0.0554 -4.13454,-0.10208 -8.313806,-0.28165 -16.614841,-0.94525 -24.858212,-2.07011 -3.921834,-0.56512 -6.398935,-0.90217 -10.278372,-1.53697 -1.410446,-0.23079 -2.816701,-0.48649 -4.224589,-0.73241 -0.701254,-0.12249 -4.383442,-0.76696 -5.4028,-0.96829 -0.428085,-0.0846 -0.851871,-0.18957 -1.277805,-0.28436 0,0 -2.145604,1.51636 -2.145604,1.51636 z"
         inkscape:export-xdpi="5.7586842"
         inkscape:export-ydpi="5.7586842" />
      <path
         style="fill:#ffb380;stroke-width:0.264583"
         id="path72"
         d="m 64.853234,170.73734 c 6.402216,0.31244 12.786135,0.90466 19.174881,1.4092 10.432756,0.8239 3.269408,0.21649 13.322652,1.10002 7.064143,0.65102 14.115413,1.47703 21.197353,1.92281 3.90062,0.24552 4.60628,0.2271 8.41913,0.31896 5.07239,0.12483 10.13989,-0.21225 15.21006,-0.2508 0.79237,-0.006 1.58474,0.0128 2.37711,0.0191 3.66411,0.13781 7.29384,0.68567 10.95424,0.88692 1.14217,0.0487 2.27189,-0.0587 3.36131,-0.40251 0,0 2.11558,-1.65289 2.11558,-1.65289 v 0 c -1.15808,0.47283 -2.3697,0.71032 -3.62605,0.71854 -1.41458,-0.003 -1.61163,0.0159 -3.09581,-0.0771 -2.73566,-0.17144 -5.4544,-0.60936 -8.20226,-0.56877 -6.04588,0.0945 -12.08122,0.49593 -18.12621,0.62611 -3.91074,-0.006 -4.66058,0.0305 -8.66111,-0.13795 -7.2619,-0.30586 -14.49177,-1.07745 -21.744173,-1.53037 -7.093572,-0.53963 -6.088552,-0.41131 -13.229674,-1.16585 -5.862717,-0.61947 -11.736284,-1.31317 -17.496867,-2.5986 0,0 -1.950162,1.38318 -1.950162,1.38318 z"
         inkscape:export-xdpi="5.7586842"
         inkscape:export-ydpi="5.7586842" />
      <path
         style="fill:#ffb380;stroke-width:0.264583"
         id="path74"
         d="m 64.328613,175.19507 c 5.836259,0.31332 11.681518,0.46981 17.516012,0.81778 6.185233,0.36888 8.43021,0.61821 14.607622,1.1744 8.962473,0.86693 17.917973,1.80928 26.886713,2.61105 7.09324,0.60226 3.6718,0.30217 10.26464,0.89641 5.47666,0.45924 10.93514,1.09876 16.41976,1.45809 2.18678,0.11829 1.14313,0.0605 3.131,0.17276 0,0 1.82257,-1.31545 1.82257,-1.31545 v 0 c -2.10047,-0.0165 -1.00544,7.9e-4 -3.28502,-0.0567 -5.7945,-0.20956 -11.5832,-0.56336 -17.37812,-0.76699 -5.61844,-0.29417 -11.23887,-0.5966 -16.84827,-1.03615 -5.33575,-0.4181 -8.38602,-0.75318 -13.75186,-1.28421 -2.405,-0.23802 -4.810165,-0.47445 -7.215249,-0.71167 -6.897645,-0.62109 -13.803569,-1.14977 -20.683412,-1.95163 -2.963879,-0.34544 -5.014762,-0.58367 -7.832548,-1.14538 -0.508707,-0.10141 -1.006425,-0.25174 -1.509638,-0.37761 0,0 -2.1442,1.51535 -2.1442,1.51535 z"
         inkscape:export-xdpi="5.7586842"
         inkscape:export-ydpi="5.7586842" />
      <path
         style="fill:#ffb380;stroke-width:0.264583"
         id="path76"
         d="m 64.118174,182.1303 c 8.562176,0.61954 17.072166,1.77268 25.582084,2.87415 9.69034,1.29149 19.373562,2.63797 29.018422,4.23674 4.10715,0.65529 8.19594,1.50904 12.34715,1.85456 2.03218,0.16914 3.66589,0.1803 5.69331,0.22939 2.99217,-0.0375 6.00731,-0.0982 8.96458,-0.59928 0.58951,-0.11647 0.31487,-0.0608 0.82413,-0.16595 0,0 2.13154,-1.62625 2.13154,-1.62625 v 0 c -0.56867,0.15203 -0.26206,0.07 -0.91981,0.24621 -3.13486,0.79883 -6.38148,1.03304 -9.6057,1.1353 -2.56813,-0.0194 -3.13402,0.0215 -5.72828,-0.18523 -4.24076,-0.33793 -8.43918,-1.07057 -12.65254,-1.63063 -2.956,-0.41473 -5.09534,-0.72897 -8.08306,-1.08798 -7.22368,-0.86802 -14.471901,-1.54237 -21.668078,-2.634 -7.938053,-1.1358 -15.928625,-2.15612 -23.702428,-4.17582 0,0 -2.20132,1.52879 -2.20132,1.52879 z"
         inkscape:export-xdpi="5.7586842"
         inkscape:export-ydpi="5.7586842" />
      <path
         style="fill:#ffb380;stroke-width:0.264583"
         id="path78"
         d="m 70.841565,187.57304 c 0.962755,0.17907 0.479824,0.0996 2.023906,0.28564 3.962935,0.4776 5.096399,0.56608 9.431041,1.22406 5.489647,0.83331 7.818636,1.30767 13.313847,2.31952 9.874491,1.95257 19.752371,3.88702 29.643021,5.75618 3.47325,0.64157 6.92574,1.38894 10.32238,2.35859 0.46905,0.12535 0.92834,0.29163 1.40805,0.37345 0,0 2.20536,-1.69903 2.20536,-1.69903 v 0 c -0.0382,0.0308 -0.067,0.0802 -0.11454,0.0924 -0.47093,0.12098 -1.00988,-0.16267 -1.46728,-0.17278 -3.70674,-0.69265 -7.43144,-1.29587 -11.17074,-1.78393 -10.29437,-1.36591 -20.55393,-2.99137 -30.747731,-4.97967 -4.767882,-0.94801 -8.133538,-1.58406 -12.845235,-2.64705 -3.267718,-0.73722 -6.558155,-1.50873 -9.701011,-2.6886 0,0 -2.301068,1.56125 -2.301068,1.56125 z"
         inkscape:export-xdpi="5.7586842"
         inkscape:export-ydpi="5.7586842" />
      <path
         style="fill:#ffb380;stroke-width:0.264583"
         id="path80"
         d="m 76.849128,192.59757 c 0.495752,0.0998 0.98842,0.21639 1.487252,0.29944 4.207954,0.7006 3.12343,0.3393 7.803904,1.36762 4.798126,1.05416 9.505754,2.45726 14.214386,3.84497 3.42874,0.99166 6.79492,2.1941 10.23826,3.13698 2.3752,0.65039 4.78667,1.13134 7.20043,1.60985 2.55824,0.52663 5.13597,0.95088 7.70977,1.39288 0,0 1.94545,-1.3734 1.94545,-1.3734 v 0 c -2.70205,-0.28277 -5.39186,-0.66983 -8.06964,-1.12872 -1.89889,-0.31101 -2.81167,-0.44478 -4.73429,-0.82787 -4.55362,-0.90734 -9.03607,-2.12576 -13.51487,-3.34071 -4.7042,-1.28915 -9.397729,-2.61286 -14.092913,-3.93432 -2.673678,-0.75251 -4.312531,-1.1431 -6.816096,-2.03396 -0.393686,-0.14009 -0.767961,-0.32969 -1.15194,-0.49453 0,0 -2.219703,1.48177 -2.219703,1.48177 z"
         inkscape:export-xdpi="5.7586842"
         inkscape:export-ydpi="5.7586842" />
      <path
         style="fill:#ffb380;stroke-width:0.264583"
         id="path82"
         d="m 88.739135,201.67438 c 7.53333,-0.60453 15.086985,0.35397 22.556435,1.25108 5.1712,0.6888 10.31165,1.57278 15.43615,2.54381 0,0 1.36957,-0.96424 1.36957,-0.96424 v 0 c -5.4225,-0.61676 -10.84167,-1.26414 -16.25328,-1.97075 -6.94987,-0.86795 -13.899801,-1.74311 -20.863692,-2.49112 0,0 -2.245183,1.63122 -2.245183,1.63122 z"
         inkscape:export-xdpi="5.7586842"
         inkscape:export-ydpi="5.7586842" />
      <path
         style="fill:#ffb380;stroke-width:0.264583"
         id="path86"
         d="m 128.64517,157.37749 c 2.43504,-0.10294 4.78349,-0.52855 7.0838,-1.3223 2.39211,-1.13351 4.88257,-2.00197 7.37849,-2.87007 2.27427,-0.70388 4.41138,-1.75498 6.62052,-2.628 4.08994,-1.85965 9.51463,-3.31905 10.96286,-7.912 0.16644,-0.98166 0.11029,-0.50452 0.17799,-1.43026 0,0 -6.95011,3.4682 -6.95011,3.4682 v 0 c -0.0766,0.79251 -0.012,0.388 -0.20337,1.21195 -0.28635,0.66099 -0.29182,0.79731 -0.78809,1.38008 -0.20742,0.24357 -0.96831,0.81768 -0.68165,0.67564 1.91195,-0.94737 3.72735,-2.07827 5.59502,-3.11021 0.35107,-0.19398 -0.68583,0.41809 -1.04519,0.59628 -0.38435,0.19059 -0.78828,0.33886 -1.18242,0.50829 -2.23597,0.81912 -4.36554,1.86598 -6.61458,2.64709 -2.46928,0.88251 -5.00121,1.61006 -7.34026,2.82235 -2.14367,0.86524 -4.36459,1.43261 -6.69533,1.37289 0,0 -6.31768,4.59007 -6.31768,4.59007 z"
         inkscape:export-xdpi="5.7586842"
         inkscape:export-ydpi="5.7586842" />
      <path
         style="fill:#ffb380;stroke-width:0.264583"
         id="path88"
         d="m 57.087976,148.10676 c 3.502623,1.93776 7.160995,3.545 10.891133,4.98513 4.49857,1.66723 9.064099,3.14745 13.693124,4.40606 2.168221,0.55311 4.377878,0.8978 6.591469,1.20424 0,0 6.074545,-4.31068 6.074545,-4.31068 v 0 c -2.255702,-0.19563 -4.50741,-0.46024 -6.71286,-0.99293 -4.716325,-1.1559 -9.399913,-2.45971 -13.971309,-4.10754 -3.456848,-1.44367 -7.054115,-2.95695 -9.892541,-5.466 0,0 -6.673561,4.28172 -6.673561,4.28172 z"
         inkscape:export-xdpi="5.7586842"
         inkscape:export-ydpi="5.7586842" />
      <path
         style="fill:#ffb380;stroke-width:0.264583"
         id="path90"
         d="m 167.63801,138.16696 c -5.00806,2.15872 -9.93365,4.70701 -14.26327,8.04089 -2.48142,2.03333 -4.42403,4.58687 -6.22433,7.21755 -1.27273,1.91854 -2.4914,3.96175 -4.27565,5.45429 11.1279,-6.85063 7.00888,-3.51643 4.40228,-3.00939 -0.94245,0.18333 -1.90778,0.2019 -2.86344,0.23742 -3.24867,1.1e-4 -6.49463,-0.26671 -9.73145,-0.52368 -2.53684,-0.22166 -1.33142,-0.0946 -3.6175,-0.36933 0,0 -5.97868,4.25661 -5.97868,4.25661 v 0 c 2.4288,0.18029 1.16211,0.0944 3.80037,0.25354 3.13078,0.25092 6.23949,0.78947 9.37708,0.8733 5.59956,-0.0546 5.38801,-0.57018 11.74774,-4.653 1.53178,-1.66057 2.69957,-3.62258 3.95616,-5.48981 1.7803,-2.56397 3.72124,-5.03039 6.21209,-6.94988 2.89852,-2.07483 1.95656,-1.32464 -3.41892,1.71868 -0.47945,0.27143 0.95296,-0.55391 1.4409,-0.80977 0.97489,-0.5112 1.52032,-0.74367 2.516,-1.12608 0.23965,-0.0921 0.48407,-0.17117 0.72611,-0.25675 0,0 6.19451,-4.86459 6.19451,-4.86459 z"
         inkscape:export-xdpi="5.7586842"
         inkscape:export-ydpi="5.7586842" />
      <path
         style="fill:#ffb380;stroke-width:0.264583"
         id="path92"
         d="m 137.48194,156.23733 c 1.71345,-0.47103 3.234,-1.47934 4.68642,-2.47752 1.57695,-0.92384 -0.67743,0.37596 -1.00058,0.58893 -0.19423,0.12801 0.41713,-0.20608 0.62741,-0.30556 0.5194,-0.24571 1.04603,-0.46972 1.58007,-0.68112 0.6567,-0.24506 1.34413,-0.37989 1.98399,-0.66974 0.85667,-0.49529 1.70958,-0.99717 2.57004,-1.48588 0.69829,-0.39661 -1.38986,0.80496 -2.08356,1.20957 -0.0788,0.046 0.15995,-0.088 0.23893,-0.13366 0.85328,-0.49382 1.70611,-0.98841 2.55783,-1.48491 0.0792,-0.0462 0.31419,-0.18881 0.23481,-0.14301 -0.69962,0.40357 -1.39705,0.81093 -2.09557,1.2164 0.15544,-0.13555 0.39096,-0.14677 0.55941,-0.25123 0.1069,-0.0663 -0.39429,-0.15504 -0.29619,-0.23377 0.59515,-0.47762 1.31779,-0.7699 1.97668,-1.15485 -1.02262,0.47988 -2.0389,0.95943 -3.02075,1.51978 -1.73448,0.94968 -3.4581,1.96343 -4.90959,3.31978 0.009,0.11699 -0.0425,0.25663 0.0273,0.35097 0.24317,0.32876 0.81341,0.37962 1.14787,0.43181 0.69311,0.10816 1.39971,0.15655 2.09684,0.23542 1.17636,0.18321 0.69047,0.18851 2.53931,-1.54079 0.12046,-0.11267 -0.32988,-0.002 -0.49481,-0.004 -0.32466,-0.003 -1.05245,7.9e-4 -1.37822,-0.0561 -0.12511,-0.0219 -0.23797,-0.0888 -0.35695,-0.13325 -0.0299,-0.0454 -0.0845,-0.0821 -0.0897,-0.13626 -0.007,-0.0695 0.18787,-0.21435 0.20544,-0.23113 0.0756,-0.0721 0.35937,-0.37156 0.41602,-0.41567 0.13739,-0.10698 0.29038,-0.19226 0.43556,-0.28839 0.70312,-0.54095 1.86345,-0.99331 2.26776,-1.82783 -0.0653,-0.0823 -0.0989,-0.2869 -0.19591,-0.24673 -0.92831,0.38433 -1.79349,0.90998 -2.65497,1.42702 -0.12657,0.076 -0.19203,0.22426 -0.28602,0.33809 -0.4211,0.50997 -0.79752,1.05024 -1.18588,1.58521 -0.33812,0.49388 -0.74268,0.94948 -1.05445,1.46194 -0.0316,0.0519 -0.17996,0.29744 -0.12618,0.41137 0.038,0.0805 0.11393,0.13671 0.17089,0.20507 0.82415,-0.49094 1.67152,-0.94483 2.47244,-1.4728 0.006,-0.004 0.028,-0.33834 0.0281,-0.33967 0.004,-0.0485 0.0589,-0.16728 0.0154,-0.14526 -2.65982,1.34815 -2.56668,0.47512 -2.49215,1.87855 5.3e-4,0.39645 0.0101,0.85076 -0.0253,1.24657 -0.0108,0.12116 -0.0759,0.23891 -0.0616,0.35972 0.0104,0.0873 0.056,0.27392 0.13141,0.22874 2.55641,-1.5312 2.25677,-0.87906 2.61434,-2.43104 0.3301,-1.33809 0.8156,-2.63258 1.40352,-3.87754 0.0426,-0.0467 0.18503,-0.16697 0.12777,-0.14017 -0.87158,0.40811 -1.7593,0.79222 -2.58308,1.28981 -0.11065,0.0668 -0.0912,0.24223 -0.1466,0.35903 -0.0803,0.16916 -0.16688,0.33546 -0.25991,0.49795 -0.33919,0.59249 -0.23594,0.43244 -0.70418,0.87817 0.58015,-0.398 1.32156,-0.62874 1.74045,-1.19398 0.14894,-0.20097 -0.49694,-0.0806 -0.73148,-0.16751 -0.45892,-0.17015 -1.09406,-0.57808 -1.49976,-0.84759 -0.20142,-0.1338 -0.38609,-0.29285 -0.59348,-0.41721 -0.15721,-0.0943 -0.33101,-0.1576 -0.49651,-0.23641 -1.36939,0.0538 -0.90942,-0.038 -2.9928,1.73153 -0.16651,0.14142 -0.12534,0.41856 -0.18847,0.6277 -0.18813,0.62335 -0.26644,0.92609 -0.64927,1.4479 -0.86435,0.67121 -0.40738,0.30296 1.96666,-1.14229 0.0651,-0.0397 -0.0788,0.0907 -0.28894,0.071 -0.12712,-0.0119 -0.25958,-0.0758 -0.37478,-0.1221 -0.18205,-0.0832 -0.76854,-0.21811 -0.81727,-0.45784 -0.005,-0.0267 0.0278,-0.0468 0.0418,-0.0702 0,0 -2.46941,1.27528 -2.46941,1.27528 v 0 c 0.019,0.0687 0.0233,0.14335 0.0569,0.20625 0.17404,0.32564 0.59886,0.41566 0.90009,0.56969 0.19377,0.0902 0.39599,0.21776 0.60995,0.25348 1.09197,0.18233 2.23176,-0.76164 2.82736,-1.66924 0.22607,-0.47059 0.33889,-0.96207 0.53156,-1.44512 0.0802,-0.2012 0.49184,-0.63141 0.27994,-0.58645 -0.57994,0.12306 -2.92959,1.42361 -1.60264,0.77124 0.17611,0.0485 0.36263,0.0687 0.52834,0.1456 0.22676,0.10522 0.42532,0.26283 0.63733,0.39529 0.39263,0.24531 1.0955,0.70021 1.50289,0.91479 0.23711,0.1249 0.47382,0.41442 0.73021,0.33643 0.99009,-0.30117 1.84694,-0.93418 2.77041,-1.40127 0.11293,-0.13509 0.2371,-0.26153 0.3388,-0.40526 0.0974,-0.13763 0.54587,-0.91309 0.62876,-1.05679 0.0814,-0.14108 0.39955,-0.46563 0.24197,-0.42447 -2.45032,0.64009 -2.34213,0.14473 -2.48516,1.12919 -0.45518,1.27579 -0.88298,2.55962 -1.29004,3.85166 -0.0884,0.2305 -0.50809,0.73564 -0.2652,0.69149 0.80101,-0.14562 1.4409,-0.77122 2.20777,-1.04462 0.078,-0.0278 0.0435,0.32818 0.0313,0.24632 -0.078,-0.52357 -0.014,-1.04749 0.0387,-1.57119 0.0301,-0.16389 0.25262,-0.52876 0.0902,-0.49168 -0.86416,0.19723 -1.64895,0.65388 -2.4513,1.03057 -0.0388,0.0182 -0.007,0.0857 -0.0155,0.12757 -0.18497,0.86862 -3.48259,1.9582 2.2354,-1.10353 0.0262,0.0745 0.0505,0.14968 0.0785,0.22352 0.003,0.008 -0.006,-0.0168 -0.003,-0.0248 0.0174,-0.0605 0.032,-0.12284 0.0615,-0.17839 0.26645,-0.50205 0.6455,-0.93923 0.96247,-1.40743 0.40678,-0.54455 0.80198,-1.11775 1.29999,-1.58583 0.11905,-0.11189 0.53027,-0.37613 0.38243,-0.30658 -2.27406,1.06989 -2.04126,1.97859 -2.22624,0.93847 -0.39832,0.67873 -1.55688,1.16572 -2.16123,1.64192 -0.3247,0.23771 -1.29842,0.82778 -0.973,1.40215 0.0517,0.0913 0.15497,0.14156 0.23246,0.21234 0.15716,0.0415 0.31096,0.0989 0.47148,0.12446 0.42819,0.0682 0.86473,0.0677 1.29531,0.11862 0.11615,0.0137 0.2453,0.112 0.34674,0.0538 0.80444,-0.46176 1.5837,-0.97782 2.29667,-1.57114 0.10419,-0.0867 -0.27112,-0.001 -0.40667,-0.002 -0.7025,-0.029 -1.4039,-0.0624 -2.09718,-0.19084 -0.19366,-0.0359 -0.38393,-0.0885 -0.57431,-0.13893 -0.0842,-0.0223 -0.1813,-0.0246 -0.24913,-0.0794 -0.0295,-0.0238 0.007,-0.0756 0.0103,-0.11334 0.35021,-0.32855 0.71732,-0.62381 1.10088,-0.91321 0.68373,-0.51589 2.65204,-1.78662 -0.67273,0.23325 0.9499,-0.55251 1.92584,-1.04205 2.93765,-1.47166 0.89514,-0.50407 1.8446,-0.92195 2.6854,-1.51221 0.15259,-0.10712 0.11032,-0.44859 -0.0871,-0.46173 -0.0628,-0.004 -0.36072,0.10997 -0.39661,0.12474 -0.0781,0.0321 -0.15376,0.07 -0.23064,0.105 -0.85568,0.49238 -1.71226,0.98318 -2.56703,1.47714 -0.0809,0.0468 -0.32115,0.19134 -0.23999,0.14498 0.70335,-0.40178 1.40455,-0.80732 2.10664,-1.21129 0.0796,-0.0458 -0.15964,0.091 -0.23928,0.13683 -0.85808,0.49366 -1.72355,0.97472 -2.57388,1.4816 -0.68912,0.41078 1.39343,-0.79549 2.09015,-1.19324 -0.64419,0.35658 -1.35244,0.50199 -2.04203,0.74588 -1.99901,0.79308 -3.8897,1.80947 -5.70279,2.97171 -1.00597,0.65833 -0.78951,0.50248 1.34202,-0.71988 0.13955,-0.08 -0.27949,0.15974 -0.42364,0.23114 -0.23586,0.11683 -0.47264,0.21393 -0.72642,0.28281 -0.0739,0.0201 -0.15056,0.0285 -0.22584,0.0428 0,0 -2.21992,1.68813 -2.21992,1.68813 z"
         inkscape:export-xdpi="5.7586842"
         inkscape:export-ydpi="5.7586842" />
      <path
         style="fill:#ff9955;stroke-width:0.264583"
         id="path94"
         d="m 95.707281,159.09162 c 0.26095,1.33516 0.510312,2.67299 0.746392,4.01285 0.177578,0.83395 0.284776,1.6853 0.493337,2.5129 0.07226,0.28675 -0.02923,0.74562 0.246621,0.85219 1.252669,0.48393 4.933249,0.195 6.022419,0.15544 4.36269,-0.21951 8.72893,-0.37625 13.09646,-0.45596 0.46794,-0.0357 0.93816,0.008 1.40635,-0.0157 1.73543,-0.0891 3.34694,-1.47561 4.61795,-2.3364 0.18225,-0.12343 0.23189,-0.37421 0.34783,-0.56131 0.99143,-1.87392 1.51512,-3.95272 1.61026,-6.06909 0.0278,-0.61803 -0.006,-1.23729 -0.009,-1.85593 -0.10173,-0.65966 -0.13651,-1.33319 -0.30519,-1.97897 -0.57984,-2.21989 -1.8145,-4.15429 -3.62472,-5.57482 -1.78985,-1.40453 -2.73741,-1.62274 -4.84941,-2.50364 -2.26909,-0.68938 -4.7707,-1.48497 -7.18625,-1.3275 -0.57574,0.0375 -1.17739,0.0921 -1.69628,0.34442 -1.47934,0.71922 -2.93315,1.5287 -4.23212,2.53787 -0.47174,0.36648 -0.64821,1.0036 -0.97232,1.5054 -0.14119,0.7423 -0.38154,1.47246 -0.42358,2.2269 -0.23014,4.13077 1.71051,8.52796 4.1576,11.75809 0.65921,0.87014 1.45941,1.62388 2.18911,2.43582 0.88375,0.63732 1.71814,1.34939 2.65125,1.91197 3.39083,2.04436 7.36381,3.05114 11.26642,3.47424 0.71357,0.0774 1.4323,0.0959 2.14845,0.14382 2.31577,0.13767 4.50615,-0.4756 6.6878,-1.14194 2.45508,-0.6536 5.01521,-0.60339 7.52608,-0.85565 0.34081,-0.062 0.69106,-0.0849 1.02241,-0.1859 0.30471,-0.0928 0.60323,-0.22007 0.87183,-0.39131 1.27358,-0.81197 2.61212,-1.55208 3.74439,-2.55171 0.30136,-0.26606 0.3469,-0.73438 0.42452,-1.12882 0.24411,-1.24047 0.0953,-2.57913 0.0384,-3.81814 -0.14157,-0.78523 -0.22035,-1.58441 -0.42471,-2.35568 -0.50726,-1.9144 -1.13667,-3.19113 -2.05909,-4.93625 -0.8573,-1.6219 -1.79965,-3.19461 -2.93699,-4.63372 -1.14364,0.71469 -2.59701,1.08421 -3.43091,2.14407 -0.30443,0.38692 0.46121,0.8721 0.73679,1.28006 1.22499,1.81339 2.76571,3.56271 4.58881,4.79481 0.67154,0.45384 1.42039,0.7812 2.13059,1.1718 0.75905,0.23896 1.49982,0.54656 2.27716,0.71686 1.68913,0.37007 3.75103,0.46906 5.28159,-0.50518 4.08112,-2.59773 3.36504,-1.37387 4.30532,-4.075 0.20331,-1.46405 -0.004,-2.90616 -0.34266,-4.33025 -0.0487,-0.20443 -0.38487,-1.47088 -0.55371,-1.76484 -0.0687,-0.11957 -0.20525,-0.18419 -0.30788,-0.27628 -1.20886,0.79266 -2.55969,1.40259 -3.62659,2.37799 -0.26709,0.24418 -0.10126,0.71665 -0.15053,1.07517 -0.0585,0.42537 -0.11628,0.85083 -0.17266,1.27648 -0.0297,0.22454 -0.23671,2.11565 -0.40714,2.38356 -0.19748,0.31044 -0.58955,0.44038 -0.88432,0.66056 0.37393,-0.42145 1.5832,-0.94103 1.12179,-1.26435 -0.7323,-0.51315 -1.7827,0.17436 -2.67689,0.17465 -1.0167,2.6e-4 -2.03325,-0.0746 -3.04519,-0.17282 -2.80018,-0.27184 -5.27163,-0.85842 -7.96642,-1.59079 -0.71381,-0.24288 -2.27622,-0.72071 -3.00263,-1.14402 -0.37485,-0.21844 -1.03381,-0.73109 -0.75289,-1.06172 0.13164,-0.15494 0.73001,-0.2896 0.59402,-0.13846 -0.579,0.6435 -1.32044,1.11971 -1.98065,1.67957 0.67817,0.0754 1.36537,0.0927 2.03452,0.22631 2.65398,0.53006 4.8353,1.28422 7.38206,2.25741 3.42711,1.30961 6.69688,2.8981 9.94997,4.58177 0.63197,0.42994 2.04888,1.01146 2.15303,2.07036 0.072,0.73194 -1.53785,1.49022 -1.17841,1.28797 3.41409,-1.92097 0.93641,-0.75219 -0.21211,-0.26737 -2.14668,0.85572 -4.37924,1.45825 -6.59405,2.10391 -0.65638,0.19136 -1.33362,0.3235 -1.96746,0.57983 -2.02549,0.81914 -4.2781,2.86162 -5.75188,3.97746 -0.63427,1.65259 -1.18589,2.4006 -0.77602,4.27828 0.58962,2.70112 2.89012,5.15946 5.06508,6.70133 0.70662,0.50094 1.49813,0.86983 2.24719,1.30474 1.30216,0.47941 3.68833,1.52163 5.0056,0.33937 1.09703,-0.98459 2.73993,-1.8097 2.98437,-3.26336 0.17381,-1.03361 -1.24291,-1.70978 -2.03215,-2.39946 -1.39671,-1.22052 -2.98947,-2.19658 -4.4842,-3.29487 -8.68765,-5.0018 -7.29487,-4.34841 -17.28422,-9.35854 -3.83895,-1.92541 -7.68218,-3.8448 -11.57525,-5.65826 -10.29406,-4.79515 -20.828409,-9.03835 -31.370679,-13.24682 -2.090753,-0.8409 -4.115046,-1.87095 -6.272265,-2.52271 -2.916359,-0.88112 -6.111314,-0.99812 -7.297193,3.12787 -0.452866,1.57563 0.717614,3.21271 1.316758,4.73872 0.875842,2.23077 5.542393,11.31987 6.533708,13.27871 1.684303,3.27462 4.228555,8.26134 6.019805,11.60253 0.72263,1.34792 1.383294,2.7348 2.216605,4.01724 0.406527,0.62563 1.844222,3.08075 3.345426,2.30169 1.573726,-0.81669 2.819355,-2.15073 4.229031,-3.22609 0.376055,-0.84921 0.770165,-1.69066 1.128168,-2.54764 1.13661,-2.72081 2.056976,-5.56013 3.738581,-8.01897 0.446455,-0.65281 1.103283,-1.1513 1.512295,-1.8282 0.18923,-0.31319 -0.557928,0.47361 -0.836888,0.71041 0.795558,-0.004 1.604998,-0.15958 2.386678,-0.0116 2.56086,0.48481 5.10954,1.979 7.18496,3.41906 3.68674,2.55808 6.77289,5.42432 9.90343,8.64565 1.66008,1.70822 3.19558,3.53324 4.79337,5.29985 3.48086,4.26063 4.08889,4.86614 7.1397,9.07894 0.77736,1.07344 1.55338,2.14999 2.26074,3.27079 0.45929,0.72774 0.97975,1.4454 1.2345,2.26738 0.1038,0.33492 -0.25131,1.3787 -0.21247,1.03022 0.091,-0.81695 0.24626,-1.62548 0.36939,-2.43822 -1.7456,-0.77528 -3.54126,-1.44645 -5.2368,-2.32584 -7.35897,-3.81671 -14.01784,-8.71329 -20.17028,-14.2475 -1.81253,-1.6304 -3.58,-3.31592 -5.25017,-5.09187 -1.31962,-1.40319 -2.47146,-2.9552 -3.707189,-4.4328 -0.688549,-1.1708 -3.081515,-4.02369 -2.232858,-6.00076 0.268774,-0.62615 1.021051,-1.14763 1.702263,-1.13182 0.528127,0.0122 0.532937,1.04868 1.040394,1.19549 1.80513,0.52223 3.75083,0.34175 5.5909,0.72299 2.26503,0.46929 4.46384,1.21511 6.69576,1.82267 6.13004,2.55386 7.80558,2.93979 13.4328,6.53438 3.85857,2.4648 7.03903,5.12171 10.29145,8.30341 2.82161,2.76026 3.54014,3.82863 5.84829,6.73831 1.9261,-0.25805 0.9096,3.67275 -0.21783,3.44422 -0.56277,-0.11407 -0.27718,-1.31097 -0.81236,-1.51907 -2.14814,-0.83525 -4.56578,-0.73934 -6.76548,-1.42741 -7.39648,-2.31362 -8.84933,-3.77972 -15.55251,-7.85565 -6.57848,-4.81673 -12.14754,-10.72514 -17.04089,-17.21093 -1.08463,-1.4376 -2.094861,-2.93116 -3.079458,-4.43904 -0.479269,-0.73398 -0.45516,-2.48133 -1.308587,-2.2811 -1.349462,0.3166 -1.763336,2.13911 -2.645002,3.20866 2.568662,5.27957 4.280048,8.64729 6.658987,14.43754 1.53272,3.73059 2.8425,7.54926 4.32119,11.30159 1.45894,3.70218 2.9516,7.39142 4.49124,11.06077 3.75292,8.94412 3.80337,8.81833 7.64673,16.81815 1.30141,2.2082 2.81103,5.53887 5.07718,7.22549 2.09832,1.5617 4.53508,-0.87011 5.69468,-2.42938 0.45301,-0.60914 0.26144,-6.64335 0.26085,-6.71599 -0.18485,-4.83157 -0.36074,-9.68634 -0.0789,-14.5193 0.138,-2.36591 0.42684,-5.14087 1.04898,-7.46197 0.24054,-0.89743 0.63045,-1.74799 0.94568,-2.62199 0.4117,-0.66571 0.75985,-1.37519 1.23509,-1.99714 0.77815,-1.01839 2.01284,-2.02652 3.01283,-2.81236 2.17996,-1.71309 4.5553,-3.15735 6.88267,-4.65636 2.60927,-1.63219 5.14724,-3.37883 7.77491,-4.98201 0.51101,-0.31178 1.97481,-1.32575 1.5541,-0.89991 -3.05751,3.09478 -2.78061,0.54284 -2.53254,3.71355 0.25011,3.50743 0.3655,7.0222 0.50124,10.53525 0.007,0.17946 0.1195,4.43425 0.31367,5.14141 0.0781,0.28455 0.36949,0.4602 0.55424,0.6903 1.38476,-0.97065 3.04176,-1.63837 4.15428,-2.91196 0.66084,-0.75651 1.79686,-7.10028 1.82231,-7.27673 0.54738,-3.79503 0.74743,-7.31116 0.27724,-11.14317 -0.24714,-2.01427 -0.8085,-3.97741 -1.21275,-5.96611 -1.39642,-4.72519 -3.14584,-9.50529 -6.36236,-13.33939 -0.43623,-0.51998 -2.80353,-3.12313 -4.19188,-2.58723 -1.59708,0.61647 -2.80762,1.95961 -4.21144,2.93942 -0.13107,1.03723 -0.37395,2.06638 -0.39322,3.11168 -0.0491,2.66058 0.45829,5.86497 1.12545,8.40963 0.72568,2.76785 1.78131,5.59161 3.3177,8.02616 0.67144,1.06397 1.55536,1.97795 2.33304,2.96693 0.85323,0.67267 1.63374,1.44959 2.55968,2.01802 1.32437,0.81303 3.11593,1.49956 4.72893,1.18859 0.74048,-0.14275 1.42871,-0.52473 2.057,-0.94178 4.53006,-3.00703 3.62083,-2.08656 5.57018,-5.50673 0.29968,-0.84393 0.66065,-1.66855 0.89904,-2.53181 0.69037,-2.50004 0.99845,-5.2445 -0.0262,-7.71081 -0.65772,-1.58315 -1.54099,-2.3872 -2.63683,-3.62133 -1.92337,-1.66484 -2.35337,-2.41823 -4.9045,1.09495 -0.25091,0.34553 0.51103,0.6851 0.7889,1.00935 0.84479,0.98573 1.74668,1.92108 2.61445,2.88665 1.51323,1.83672 4.14541,4.9517 4.09545,7.48211 -0.0132,0.67021 -0.1054,1.40473 -0.49734,1.94855 -0.53103,0.73681 -1.42056,1.13205 -2.13084,1.69807 -2.56312,0.24962 -9.99976,0.9767 -10.42795,0.98709 -2.9799,0.0724 -5.96565,-0.0902 -8.93581,-0.34153 -5.32651,-0.45062 -10.82543,-1.40849 -15.99574,-2.79952 -2.0223,-0.54407 -3.98308,-1.29536 -5.97461,-1.94304 -1.44811,-0.70156 -2.98998,-1.23579 -4.34431,-2.10468 -0.92291,-0.59211 -1.8861,-1.27255 -2.41603,-2.23252 -1.05026,-1.90256 0.71349,-3.42016 2.02193,-4.30687 0.74576,-0.50539 1.6515,-0.72461 2.50143,-1.02329 2.12332,-0.74616 4.27587,-1.40642 6.4138,-2.10964 3.97319,-0.98893 7.81111,-2.16703 11.93107,-2.38678 3.36043,-0.17925 6.6804,0.11292 9.50404,2.22742 4.66414,3.49276 5.75971,7.51012 8.35188,12.66714 2.35752,7.52767 3.71155,10.60983 4.67529,18.36488 0.58842,4.7349 0.94181,7.79966 -1.46059,11.87364 -0.2731,0.46313 -0.91292,0.65097 -1.44704,0.71255 -1.65126,0.19039 -3.32435,0.0195 -4.98652,0.0292 -5.00604,-1.34545 -6.59509,-1.42104 -11.16697,-4.09897 -3.6309,-2.12676 -6.72962,-4.83545 -9.58773,-7.89596 -2.83073,-3.0312 -3.50385,-4.32494 -5.66962,-7.61819 -0.48001,-0.93684 -1.02192,-1.84446 -1.44004,-2.81051 -0.25495,-0.58907 -0.45749,-1.2071 -0.57219,-1.83864 -0.0254,-0.13963 0.24867,-0.50769 0.16712,-0.39155 -0.90791,1.29314 -2.23816,2.40431 -2.65108,3.92944 -0.326,1.20411 0.53314,2.44982 0.58652,3.69614 0.075,1.75 -0.13554,3.5006 -0.20331,5.2509 -0.50246,2.1158 -0.84361,4.27653 -1.50736,6.3474 -1.33647,4.16975 -3.58152,8.72685 -5.69298,12.55808 -1.48573,2.69581 -3.27511,5.6999 -5.34702,8.05378 -0.46708,0.53065 -1.06934,0.92496 -1.60402,1.38744 0.97569,-0.62174 2.01349,-1.15535 2.92706,-1.86522 0.27502,-0.2137 0.38423,-0.58118 0.58635,-0.86481 0.3877,-0.54403 0.75463,-1.10511 1.18288,-1.61784 1.79887,-2.15372 3.9611,-3.89364 6.12824,-5.65284 2.30079,-1.80079 4.80818,-3.34324 7.04724,-5.22523 0.93416,-0.78518 2.35628,-2.0976 2.97063,-3.2158 0.30898,-0.56238 0.42051,-1.2125 0.63077,-1.81875 -0.28728,-0.82636 -0.35502,-1.76595 -0.86184,-2.47907 -2.32576,-3.27242 -5.92669,-4.86983 -9.31792,-6.77276 -3.57478,-2.00592 -9.82103,-5.25723 -13.6078,-7.00569 -1.85583,-0.85689 -3.763926,-1.59571 -5.645892,-2.39357 -1.419389,-0.3953 -2.795796,-1.00591 -4.258167,-1.18591 -2.595922,-0.31954 -4.998423,1.55282 -6.370772,3.56731 -0.446709,0.65572 -0.119417,1.5991 0.01995,2.3802 0.389503,2.1831 1.097727,2.77213 2.337932,4.53416 0.739831,0.56727 1.421397,1.21995 2.219492,1.70181 1.616935,0.97627 3.344246,1.52509 5.183856,1.87951 0.748787,0.14427 3.149436,0.4753 4.034878,0.0812 1.437533,-0.6399 2.704393,-1.60938 4.056593,-2.41406 0.062,-0.53254 0.37891,-1.09733 0.18615,-1.59762 -0.7682,-1.99387 -4.11011,-5.2098 -5.321002,-6.397 -2.03844,-1.99854 -5.847837,-5.38858 -8.073052,-7.22904 -1.123537,-0.92927 -2.296054,-1.79767 -3.444081,-2.69651 -0.882861,-0.53659 -1.69137,-1.22104 -2.648587,-1.60976 -2.429116,-0.98646 -4.353619,0.8959 -5.990844,2.70438 -0.561253,0.61995 -0.525852,1.59014 -0.715383,2.40466 -0.374862,1.61098 -0.642618,3.89287 -0.863108,5.53464 0.274264,1.25893 -0.590881,2.51567 -0.454549,3.7761 0.02141,0.19797 0.20321,0.54613 0.38227,0.45903 6.86127,-3.3376 2.212909,-1.77279 7.019012,-4.8222 0.871064,-0.55268 1.849475,-0.91448 2.774214,-1.37172 2.155796,-0.71032 4.267483,-1.57201 6.467388,-2.13097 5.909961,-1.50161 12.525762,-2.20103 18.287272,0.35529 4.35669,1.93301 5.03817,3.49996 7.99805,6.96659 0.73642,1.4876 1.6481,2.90063 2.20925,4.4628 0.95378,2.65515 1.49612,5.68921 0.42884,8.43901 -0.44671,1.15093 -1.29135,2.13006 -2.15507,3.01221 -0.36746,0.37529 -0.92481,0.52404 -1.43388,0.65331 -1.52617,0.38754 -3.09295,0.59259 -4.63942,0.88889 -1.63373,-0.0389 -3.27875,0.0789 -4.9012,-0.11667 -5.44808,-0.65675 -10.813212,-3.04331 -13.449978,-8.12525 -0.443105,-0.85402 -0.597574,-1.82911 -0.896363,-2.74366 0.199842,-0.76176 0.02944,-1.74196 0.59953,-2.28528 0.343704,-0.32757 0.892768,0.34605 1.362472,0.4154 2.495957,0.36849 5.052059,0.35212 7.515889,0.89539 2.88569,0.63627 5.68602,1.62763 8.46632,2.6286 5.58362,2.01023 9.02021,3.81053 14.25204,6.32644 1.34444,0.78566 2.68887,1.57133 4.0333,2.35699 0.12611,0.43673 0.65105,1.67383 0.37832,1.31017 -3.88846,-5.18499 4.36533,-0.0878 -7.99711,-3.9998 -7.09573,-2.24539 -8.68805,-3.42256 -15.28698,-6.82548 -5.47832,-3.17173 -10.590162,-6.90821 -15.348531,-11.07372 -0.931066,-0.81506 -1.81695,-1.68034 -2.723595,-2.52248 -0.59682,-0.55436 -1.150255,-1.15875 -1.786792,-1.66701 -0.30213,-0.24125 -0.674402,-0.3783 -1.011605,-0.56745 -1.190133,0.88593 -2.775934,1.40475 -3.570399,2.6578 -0.43947,0.69314 0.220729,1.62656 0.33908,2.4387 0.189082,1.29753 0.40803,2.59074 0.5832,3.89022 0.582461,4.3209 0.967737,8.64746 1.277289,12.99463 1.940655,2.21983 -1.415322,3.27505 -1.306669,4.99152 0.03134,0.49514 1.366348,-0.5718 1.107083,-0.99479 -0.436959,-0.7129 -1.658107,-0.45143 -2.312532,-0.97189 -3.225229,-2.56501 -4.246708,-5.2037 -6.342946,-8.77105 -2.044214,-5.38138 -2.85341,-6.66126 -3.765828,-12.2698 -0.269798,-1.65843 -0.490138,-3.34627 -0.405376,-5.02436 0.05753,-1.13888 0.669335,-2.19017 0.826844,-3.31958 0.03235,-0.23193 -0.650428,0.44423 -0.440243,0.54749 1.214361,0.59656 2.595338,0.76581 3.893008,1.14871 2.128477,1.31769 4.331004,2.52267 6.38543,3.95307 10.308997,7.17769 19.107932,16.15039 28.216402,24.72469 1.29712,1.07194 1.73704,1.608 3.07947,2.27754 0.16585,0.0827 0.36415,0.24271 0.53151,0.16311 1.17716,-0.55996 2.36977,-1.15636 3.35382,-2.01129 0.22754,-0.19769 -0.621,-0.24853 -0.89565,-0.12435 -1.49082,0.67407 -2.83474,1.6346 -4.2521,2.4519 0.21315,-0.14516 0.88226,-0.52233 0.63945,-0.43547 -4.58128,1.63893 -2.44761,1.49941 -7.5465,2.59236 -2.57072,0.55103 -5.42112,0.82321 -8.056439,0.75467 -1.093267,-0.0284 -2.177405,-0.2075 -3.266104,-0.31126 -0.888373,-0.23715 -1.805109,-0.38614 -2.665119,-0.71145 -2.071923,-0.78375 -4.047667,-2.26952 -4.942861,-4.35886 -0.852141,-1.98885 -0.541033,-2.66401 -0.397735,-4.79208 0.328964,-0.92425 0.555847,-1.89146 0.986896,-2.77274 0.490334,-1.00248 1.106389,-1.94363 1.761773,-2.84688 2.611929,-3.5998 6.120701,-6.39201 9.627087,-9.06194 -0.247336,-1.28511 2.338932,-0.81424 2.539192,-1.84018 0.0537,-0.27493 -0.40783,-0.50816 -0.68692,-0.4841 -1.01274,0.0873 -1.96894,0.50802 -2.943496,0.797 -2.355459,0.69845 -6.17003,1.97221 -8.467873,2.72748 -0.95939,0.32312 -6.125726,2.04591 -7.311692,2.50567 -0.77675,0.30112 -1.619834,0.51052 -2.28532,1.01167 -1.222507,0.92062 -2.991887,1.69404 -3.298634,3.19336 -0.220697,1.07873 1.324673,1.77354 2.128499,2.52602 1.153641,1.07996 2.476926,1.96306 3.715387,2.94458 1.363311,1.02284 2.722708,2.05092 4.089937,3.06853 1.030365,0.76687 5.591644,4.18343 6.955359,4.97679 0.531233,0.30905 1.163749,0.92139 1.720871,0.6619 5.218812,-2.4308 3.173751,-3.0258 0.907714,-6.02478 -1.572249,-1.63288 -3.12107,-3.28865 -4.716748,-4.89865 -2.045981,-2.06435 -4.142333,-4.07816 -6.207334,-6.12348 -4.968036,-4.92068 -7.404021,-7.32584 -12.188015,-12.26285 -1.569969,-1.62018 -3.142049,-3.23893 -4.673629,-4.89545 -1.141696,-1.23483 -2.229885,-2.51808 -3.344828,-3.77711 -0.429731,-0.58718 -2.628078,-2.93453 -2.457167,-4.34172 0.03222,-0.26525 0.850617,-0.60199 0.707879,-0.37611 -0.491926,0.77846 -1.891183,1.18277 -1.796447,2.09875 0.08192,0.7921 1.453492,0.66312 2.126171,1.08931 0.841833,0.53336 1.601504,1.1865 2.402258,1.77975 0.760471,0.80753 1.592762,1.55301 2.281412,2.4226 1.109482,1.40098 2.427512,3.51947 2.804861,5.33687 0.151577,0.73004 0.246457,1.53629 -0.0089,2.23681 -0.244364,0.67035 -0.891924,1.11788 -1.397508,1.62134 -0.08063,0.0803 0.06518,-0.21805 0.09777,-0.32707 -1.110668,0.23275 -2.200357,0.61377 -3.332002,0.69824 -5.478975,0.40895 -11.268694,-1.43747 -14.878081,-5.72203 -0.815623,-0.96819 -1.351688,-2.14091 -2.027531,-3.21137 -0.346925,-1.12054 -0.817761,-2.20999 -1.040776,-3.36161 -0.503243,-2.59868 -0.238964,-5.7747 1.121905,-8.10704 0.875162,-1.49991 1.544225,-1.75782 2.893369,-2.69547 -0.238125,0.40745 -1.055669,0.89641 -0.714372,1.22234 0.584332,0.55804 1.622621,0.14027 2.39377,0.38148 0.942234,0.29473 1.852859,0.70922 2.702195,1.2125 1.851411,1.09708 3.791416,2.82337 5.119447,4.50871 0.716854,0.90972 1.251894,1.94901 1.87784,2.92352 0.369554,1.01359 0.858727,1.99125 1.108665,3.04076 0.426514,1.79093 0.444307,3.52588 -0.191053,5.26395 -0.448151,1.22593 -1.398664,2.41566 -2.416709,3.22154 -0.417148,0.33021 -0.91835,0.53743 -1.377527,0.80614 0.578784,-0.46238 1.537176,-0.67363 1.736352,-1.38716 0.116956,-0.41898 -0.861211,-0.21815 -1.2193,-0.46512 -0.502889,-0.34683 -0.941623,-0.79395 -1.311357,-1.28026 -1.168705,-1.53716 -1.777503,-3.12382 -2.145515,-5.0327 -0.221477,-1.14881 -0.228028,-2.32878 -0.342042,-3.49318 0.111286,-5.60825 1.381683,-11.11946 3.122385,-16.42956 0.497363,-1.40793 1.600731,-2.34556 2.558425,-3.42938 0.984814,-1.11451 1.147696,-1.37247 2.056696,-2.56264 0.959803,-1.28552 2.463377,-3.51054 0.530051,-4.77581 -1.242052,-0.81286 -2.511764,-0.7311 -3.921776,-0.85928 -2.050727,0.0861 -3.983689,0.62437 -5.751441,1.67149 -1.743596,1.0328 -3.738793,1.9532 -5.087226,3.54855 -0.2261,0.26751 -0.387868,0.58334 -0.581805,0.87501 0.06087,0.30178 0.01452,0.64742 0.182596,0.90535 0.442746,0.67948 1.81537,1.31307 2.408251,1.65459 0.634392,0.36544 1.281113,0.71128 1.896163,1.10841 1.954525,1.26201 1.899166,1.33864 3.59805,2.8863 2.035847,2.21359 3.4529,4.84946 4.091567,7.79945 0.454517,2.0994 0.581411,4.32021 0.771242,6.4493 0.189849,2.33351 0.313679,3.96297 0.533405,6.26808 0.160137,1.67999 0.212649,4.19618 1.224399,5.66322 0.228878,0.33187 0.586441,0.55334 0.879661,0.83002 0.204956,0.47155 2.000295,0.65258 2.372325,0.91247 0.266192,0.18595 -0.136615,0.6493 -0.31119,0.92308 -0.289798,0.4545 -0.592555,0.9006 -0.888833,1.35089 -2.74738,3.49083 -5.382903,7.15702 -7.209229,11.23078 -1.16672,2.60245 -1.258864,3.40317 -1.935239,6.05529 -0.17114,1.12326 -0.83461,4.35244 0.541404,5.22257 0.406439,0.25701 0.956579,0.32726 1.425604,0.22113 1.968502,-0.44547 6.428324,-4.46735 6.781506,-4.74456 4.184343,-5.32911 7.018343,-11.52162 8.908256,-18.00242 1.056539,-3.62304 1.584767,-6.59765 2.326592,-10.2623 -5.081875,2.68244 3.370162,-6.52327 1.448446,-5.89243 -1.077619,0.35375 -2.083925,1.38007 -2.319443,2.48954 -0.18179,0.85636 0.897419,1.50427 1.307433,2.27776 4.476004,8.44391 -1.497687,-2.30979 3.343957,6.30572 1.759585,2.08508 2.608819,3.62537 5.260163,4.68617 3.923284,1.56971 8.445804,0.34196 12.12377,-1.24791 1.32888,-0.57443 2.55348,-1.36503 3.83022,-2.04754 1.74574,-1.26874 3.60737,-2.39169 5.23723,-3.80621 1.63008,-1.4147 3.56189,-4.15033 4.47975,-6.13016 0.74805,-1.61353 1.51291,-4.09761 0.96943,-5.94038 -0.2848,-0.96565 -1.05298,-1.71628 -1.57946,-2.57442 -1.07299,-0.68474 -2.07785,-1.49027 -3.21895,-2.05423 -3.23236,-1.59752 -7.48779,-2.62721 -11.096181,-1.96248 -3.16615,0.58327 -5.160883,2.35665 -7.917916,4.08013 -0.652407,0.74152 -1.383704,1.42047 -1.957223,2.22457 -0.992614,1.39169 -1.852938,3.22596 -2.077165,4.94485 -0.11123,0.85268 -0.216423,1.76254 0.05298,2.57915 0.759974,2.30365 3.033813,4.17964 4.614939,5.79221 1.44249,1.36172 4.625946,4.22622 5.82933,5.89687 1.40241,1.94697 2.264462,3.6327 1.320093,6.04018 -1.012555,2.58131 -3.445084,4.05754 -5.455187,5.69269 -1.267174,0.78318 -2.503106,1.61932 -3.801523,2.34954 -0.487807,0.27434 -1.028565,0.44154 -1.544968,0.65729 -0.946356,0.39537 -1.892721,0.79083 -2.84326,1.17604 -1.60474,0.65033 -4.689427,1.45141 -4.672282,3.87453 0.008,1.13723 1.807154,1.38116 2.710733,2.07174 4.590946,2.69146 9.196398,5.37085 13.882859,7.89423 1.187659,0.63948 2.361523,1.31277 3.597731,1.85245 0.7381,0.32223 1.54878,1.00165 2.30495,0.72444 1.38837,-0.50896 2.28097,-1.88247 3.42145,-2.8237 -8.5681,-10.98353 2.72816,3.37631 -9.569805,-11.67992 -2.391002,-2.92727 -4.702992,-5.91819 -7.05449,-8.87729 -2.453888,-3.02889 -4.89086,-6.07156 -7.361666,-9.08666 -20.780777,-25.35861 5.491012,6.93771 -12.361711,-15.04225 -0.311367,-0.39666 -5.442109,-6.99801 -6.573732,-8.25563 -0.363484,-0.40396 -0.729236,-1.29073 -1.227201,-1.07317 -1.39107,0.60776 -2.743586,1.68824 -3.357938,3.07641 -0.406977,0.91959 0.413221,1.97052 0.69745,2.93514 0.368278,1.24988 0.83862,2.46738 1.257929,3.70108 0.720926,1.30739 1.302883,2.70169 2.162776,3.92217 1.784308,2.53256 4.586946,5.3377 7.395736,6.72099 3.580178,1.76319 8.288039,2.47136 12.201993,2.62829 2.0573,0.0825 4.114716,-0.16198 6.172073,-0.24298 1.812372,-0.36342 3.658698,-0.58629 5.437114,-1.09028 1.532197,-0.43421 3.041954,-0.98844 4.459438,-1.71432 2.872044,-1.47075 5.844244,-3.1258 7.691874,-5.88523 1.38988,-2.0758 1.33794,-3.31447 1.70951,-5.65625 -0.065,-2.12213 0.12079,-4.94151 -1.85939,-6.40925 -2.13826,-1.58492 -4.76553,-1.43707 -7.278413,-1.45653 -1.735445,-0.0134 -3.467762,0.14965 -5.201643,0.22447 -5.574924,0.57021 -11.235136,1.2311 -16.644691,2.76822 -0.558974,0.6945 -2.301298,1.44715 -1.676926,2.0835 0.732131,0.74618 2.043012,-0.4442 3.063671,-0.67015 4.007583,-0.8872 8.010498,-1.84562 12.055493,-2.55243 1.243928,-0.21736 2.497146,-0.37772 3.74572,-0.56658 1.254879,-0.005 2.513311,-0.10799 3.764634,-0.0135 3.043555,0.22984 6.343565,1.09327 8.760335,3.06212 0.64297,0.5238 1.3246,1.08522 1.68131,1.83392 0.42239,0.88657 0.37973,1.92704 0.5696,2.89056 -0.68326,1.20933 -1.1905,2.53667 -2.04978,3.62797 -2.31531,2.9405 -5.12911,4.97054 -8.477402,6.60257 -1.005739,0.49022 -2.120016,0.73304 -3.213851,0.96831 -1.369944,0.29467 -2.757294,0.58723 -4.158245,0.61737 -1.123148,0.0242 -2.226148,-0.30405 -3.339224,-0.45608 -0.68563,-0.43913 -1.560549,-0.67198 -2.056894,-1.31741 -0.964507,-1.2542 -0.22396,-2.97382 0.6327,-3.95343 0.691306,-0.79053 1.57988,-1.39961 2.473437,-1.95134 0.346254,-0.21379 0.787929,-0.20388 1.181936,-0.30566 1.173906,-0.30326 2.347864,-0.60631 3.521797,-0.90946 1.051975,-0.0338 2.107753,-0.19705 3.155921,-0.10146 1.83362,0.16721 3.303796,0.75125 4.685945,1.96555 2.08136,1.82862 3.46375,4.83131 4.74569,7.22702 1.68645,2.99203 2.90494,6.64704 5.97749,8.56526 1.77387,1.10744 2.20546,0.89561 4.21056,1.04028 2.76493,-1.01879 5.23756,-1.55731 6.52146,-5.16936 1.61357,-4.5395 -4.94925,-9.89672 -6.977,-11.67547 -6.78326,-5.95029 -9.32644,-6.68698 -17.03549,-10.62603 -1.975464,-0.49957 -3.893344,-1.36179 -5.926392,-1.49872 -2.253747,-0.1518 -5.615498,2.73896 -5.419783,4.96043 0.124521,1.41336 2.030682,2.03085 3.264405,2.73159 3.563454,2.024 5.737895,1.97592 9.65779,2.54845 1.42896,-0.17906 2.88821,-0.1941 4.28688,-0.5372 3.56334,-0.87412 6.86107,-3.67436 10.60133,-3.72477 3.30557,-0.0445 3.74667,1.02564 6.2449,2.97904 0.64606,1.18458 1.44259,2.29875 1.9382,3.55375 0.88442,2.2396 1.21235,4.98998 1.30818,7.38072 0.0385,0.96036 0.0366,1.92718 -0.0682,2.88258 -0.038,0.34697 -0.66215,1.15232 -0.35591,0.98482 1.44031,-0.78777 2.63016,-1.96533 3.94524,-2.948 0.76646,-0.84318 1.38491,-1.84971 2.29937,-2.52954 2.0934,-1.5563 8.51013,-3.80271 10.18647,-4.33192 3.0607,-0.96624 7.45169,-2.00276 10.78411,-2.14705 0.88806,-0.0384 1.76712,0.19434 2.65069,0.29152 -0.12573,0.28777 -0.10551,0.70578 -0.37718,0.86332 -0.16449,0.0954 -0.19637,-0.45337 -0.38392,-0.42195 -2.08147,0.34875 -4.06778,1.15562 -6.14724,1.51622 -3.67091,0.63657 -8.36994,1.11252 -12.10418,0.14809 -1.37012,-0.35386 -2.54078,-1.24667 -3.81116,-1.87 -0.80642,-0.82764 -1.72965,-1.55568 -2.41924,-2.4829 -1.09706,-1.47511 -1.67428,-3.24351 -1.98483,-5.02571 -0.11654,-0.66881 -0.17896,-1.35245 -0.15355,-2.03086 0.0166,-0.44413 0.63074,-1.57496 0.2785,-1.30392 -0.72719,0.55956 -1.02987,1.51888 -1.54481,2.27833 6.76162,2.76472 13.55308,5.52279 20.69129,7.17839 1.62822,0.37764 3.26812,0.74051 4.93082,0.9112 1.32356,0.13587 2.66103,0.003 3.99155,0.005 3.34725,-1.00859 4.56341,-1.03773 7.47519,-4.03298 1.35354,-1.39235 1.08271,-4.09022 0.53692,-5.6394 -1.13666,-3.22631 -3.36692,-5.54127 -5.43614,-8.17758 -3.6598,-3.91922 -4.37889,-4.77471 -8.13275,-8.46999 -1.13316,-1.11547 -2.26156,-2.23809 -3.45187,-3.29237 -1.02809,-0.9106 -3.20916,-2.8893 -4.86458,-3.18304 -0.47948,-0.0851 -0.94905,0.21882 -1.42357,0.32823 -1.1558,1.15586 -2.96478,1.91218 -3.46741,3.46757 -0.38565,1.19341 0.69236,2.41854 1.1938,3.56811 0.68195,1.5634 1.5148,3.0581 2.34618,4.54743 1.54119,2.76086 3.57941,6.06998 5.59238,8.5475 0.85821,1.05628 1.86407,1.9835 2.79611,2.97525 0.9054,0.63732 1.70689,1.45674 2.7162,1.91197 4.52075,2.03899 9.43854,-1.17572 12.81823,-3.83212 0.63901,-0.50225 1.06426,-1.22872 1.59639,-1.84308 1.19979,-1.77508 1.81036,-3.75895 2.15949,-5.84991 0.0876,-0.52467 0.13195,-1.05568 0.19227,-1.58419 0.0479,-0.41983 0.0183,-0.85385 0.13241,-1.26071 0.0966,-0.34457 0.32607,-0.63715 0.4891,-0.95572 0.34008,-0.25498 0.60145,-0.69228 1.02025,-0.76494 0.31666,-0.0549 -0.97913,0.74388 -0.66041,0.70251 1.07414,-0.13945 2.0503,-0.70055 3.08607,-1.01741 0.94346,-0.28863 4.97797,-1.40859 6.06072,-1.66574 0.75733,-0.17986 1.52585,-0.30885 2.28877,-0.46328 0.65514,-0.0497 2.1673,-0.47769 2.70313,0.43441 0.80744,1.3744 -0.24816,4.2446 -0.60673,5.13722 -1.66408,4.14263 -3.02985,5.4831 -5.70496,9.11079 -3.01205,3.22095 -3.92627,4.5025 -7.36863,7.08586 -1.0408,0.78108 -2.12501,1.52093 -3.28833,2.10405 -0.1654,0.0829 -0.33527,-0.21188 -0.51954,-0.1953 -5.51277,0.49587 0.69273,0.50542 -3.98592,0.40098 -0.49242,-0.17309 -1.02486,-0.25894 -1.47726,-0.51927 -1.35826,-0.7816 -1.93752,-2.21158 -1.68833,-3.72768 0.21233,-1.29176 0.59336,-1.5551 1.34225,-2.56737 0.40977,-0.30823 1.7046,-1.11702 1.2293,-0.92467 -0.54473,0.22044 -1.3815,0.42718 -1.44387,1.0115 -0.0489,0.4581 0.90075,-0.24765 1.36136,-0.23849 0.67429,0.0134 1.45829,0.24969 1.27339,1.15108 -0.12342,0.60168 -0.51726,1.11421 -0.77589,1.67131 -0.75294,0.88682 -1.43508,1.839 -2.25882,2.66047 -4.11748,4.10614 -9.22617,7.56552 -14.07087,10.74262 -4.83119,3.16824 -3.12008,2.41593 -6.62821,3.62389 -2.11539,0.46114 -3.77876,0.9108 -5.56477,-0.59279 -1.04661,-0.88112 -0.50251,-0.78622 -1.21118,-1.77591 -0.11991,-0.16747 -0.30761,-0.27399 -0.46141,-0.41098 -1.31191,0.79106 -2.79922,1.34594 -3.93573,2.37319 -0.44698,0.40401 -0.43513,1.12685 -0.58282,1.71098 -0.24096,0.95303 -0.5227,1.91001 -0.5808,2.89132 -0.0954,1.61068 -7.9e-4,3.2302 0.1231,4.83894 0.3852,5.00201 0.87901,6.78419 1.83502,11.70073 0.98007,3.35912 1.45253,5.71187 3.05431,8.75449 0.62213,1.18175 1.72186,2.99847 3.26865,3.33009 2.17228,0.46571 5.56968,-2.32006 6.56074,-2.89386 0.54181,-0.60308 1.16179,-1.14419 1.62543,-1.80925 1.50164,-2.15403 2.68504,-5.49761 2.03331,-8.14729 -0.6994,-2.84347 -2.00381,-3.52523 -4.01952,-5.47967 -2.44201,-1.34676 -3.46709,-2.4503 -6.40975,-2.05107 -1.12748,0.15297 -2.22021,0.61402 -3.19561,1.19988 -1.82914,1.09864 -3.57423,2.36447 -5.14431,3.80934 -1.24397,1.14476 -4.49767,5.967 -5.40082,7.2594 -2.32585,3.40926 -4.62948,6.83427 -6.97633,10.2292 -0.52529,0.75988 -1.01689,1.54544 -1.59151,2.26874 -0.41245,0.51918 -1.9481,1.13868 -1.36237,1.44945 0.63476,0.33679 1.17803,-0.82316 1.76705,-1.23474 -0.31427,-0.19811 -0.74041,-0.28279 -0.9428,-0.59432 -1.01053,-1.55548 -1.66469,-5.46742 -1.86308,-6.76719 -0.60537,-3.96619 -0.87077,-8.39247 -0.91429,-12.38854 -0.0226,-2.07815 0.0847,-4.15569 0.12713,-6.23354 0.27022,-2.59268 0.37148,-6.96757 1.81263,-9.46148 0.50969,-0.88201 1.25571,-1.9567 2.27051,-2.04554 0.68318,-0.0598 0.50802,1.37095 1.07794,1.7524 1.44699,0.96849 3.2432,1.29685 4.75871,2.15416 1.81493,1.02669 3.46606,2.31923 5.19909,3.47884 3.19452,2.67506 5.66856,4.4999 8.36154,7.64456 0.86915,1.01493 2.18074,1.9471 2.30855,3.2772 0.0843,0.87686 -0.94736,1.74131 -1.80846,1.92698 -1.09924,0.23702 -2.15757,-0.66296 -3.26929,-0.8321 -3.02657,-0.46047 -6.0824,-0.70227 -9.12361,-1.0534 -9.06026,-2.08454 -18.04828,-4.90836 -25.902233,-10.03151 -2.950212,-1.92442 -6.387896,-4.68942 -8.111566,-7.94671 -0.527609,-0.99704 -0.55004,-2.18799 -0.825061,-3.28199 0.666872,-2.47867 0.258834,-2.55229 2.270037,-4.16491 0.215128,-0.1725 -0.671134,0.62769 -0.410636,0.71811 0.852551,0.29592 1.825819,-0.11968 2.706198,0.0787 3.308713,0.74544 4.309806,2.14703 7.054906,4.31613 6.754255,6.5962 11.799715,14.60225 17.269685,22.22604 1.13387,0.98752 2.4682,2.29211 2.65867,-3.26572 0.0394,-1.1492 -1.36207,-1.87055 -2.20399,-2.65373 -1.61672,-1.50392 -3.41761,-2.79693 -5.14033,-4.17816 -4.00582,-3.21176 -8.04561,-6.38094 -12.064745,-9.57602 -2.360576,-1.88036 -6.496013,-5.26713 -9.151078,-7.07417 -0.943432,-0.6421 -1.870601,-1.35945 -2.943431,-1.74855 -2.272062,-0.82404 -4.627623,2.00945 -5.402143,3.44025 -0.433946,0.80165 0.183186,1.8139 0.274777,2.72085 0.408668,1.12732 0.728343,2.29099 1.226,3.38194 2.428862,5.32448 6.153825,9.74296 10.804922,13.26299 0.683604,0.51737 1.449879,0.9153 2.174822,1.37295 0.980995,-1.05053 3.250586,-1.74754 2.942989,-3.15159 -0.470363,-2.14702 -3.106438,-3.11029 -4.656261,-4.66882 -2.041388,-2.05285 -4.090737,-4.09788 -6.117366,-6.1653 -2.065504,-2.10708 -4.110389,-4.23429 -6.158819,-6.35797 -1.822017,-1.88895 -3.601488,-3.81934 -5.452489,-5.67989 -1.445733,-1.45319 -2.957131,-2.83954 -4.435697,-4.25931 -1.156274,-0.57892 -2.19569,-1.51037 -3.468822,-1.73675 -2.757747,-0.49037 -5.84572,3.41365 -6.631562,4.9205 -0.639866,1.22695 -0.381651,2.74829 -0.400592,4.13193 -0.04543,3.31897 0.494786,6.38994 0.936617,9.66357 0.663474,3.64508 1.209508,7.33791 2.332384,10.88093 0.34581,1.09114 0.780317,2.18591 1.367824,3.17501 0.137668,0.23176 0.320186,0.43377 0.480277,0.65065 1.617313,0.61403 0.780804,0.41055 3.772646,-2.29434 0.158441,-0.14325 -0.01029,-0.42706 -0.01543,-0.6406 0,0 -3.36274,1.69135 -3.36274,1.69135 v 0 c -0.02638,0.19274 -0.264615,0.63687 -0.07912,0.57824 2.33783,-0.73897 4.080664,-2.44216 2.832571,-1.262 -0.211891,-0.15804 -0.450239,-0.28573 -0.635674,-0.47412 -0.795055,-0.8077 -1.370016,-1.78787 -1.849131,-2.80862 -1.549408,-3.30098 -2.336935,-6.88933 -3.042007,-10.44418 -0.464481,-3.66644 -0.957847,-6.02655 -0.656508,-9.7401 0.11521,-1.41978 0.760746,-2.77814 0.774769,-4.20252 0.0053,-0.53684 -1.074325,-1.03844 -0.719209,-1.44107 1.96909,-2.23257 5.150366,-0.41636 7.085835,0.14803 1.667912,1.29954 3.409389,2.50982 5.003736,3.89863 3.296825,2.87181 9.050311,8.70508 11.838263,11.89485 1.865471,2.13434 3.724352,4.29074 5.326689,6.6291 1.156238,1.68734 1.470928,3.95158 2.915783,5.39948 0.594431,0.59568 1.682721,0.0346 2.52408,0.0518 -0.867341,-0.34387 -1.801998,-0.55152 -2.602026,-1.0316 -1.157428,-0.69456 -2.216489,-1.55352 -3.216603,-2.46007 -3.247806,-2.94395 -5.854452,-6.63292 -7.362026,-10.76464 -0.410626,-1.12538 -0.589476,-2.32226 -0.884214,-3.48339 0.01836,-0.90516 0.540139,-1.95104 0.05508,-2.71548 -0.338452,-0.5334 -2.156436,0.39944 -1.887307,-0.17207 0.32276,-0.68541 1.463619,-0.63204 2.212747,-0.51903 1.228035,0.18525 2.35608,0.81147 3.462711,1.37517 3.648575,1.85853 6.61971,4.17378 9.967838,6.54182 4.38885,3.43351 7.73463,5.82328 11.66168,9.81213 1.4665,1.48959 2.8397,3.08092 4.06981,4.77099 0.65411,0.89871 0.5474,2.47451 1.55123,2.95187 2.01703,0.95918 4.83334,-1.57204 3.05849,-0.0756 -0.52946,-0.38594 -1.10421,-0.7164 -1.58839,-1.15783 -1.99075,-1.81496 -3.80582,-4.13019 -5.4729,-6.19544 -3.80093,-4.70875 -7.42344,-9.55807 -11.246245,-14.24948 -2.488449,-2.5273 -3.131452,-3.93965 -6.412169,-4.94474 -2.996835,-0.91812 -4.810602,0.32365 -7.51745,2.10719 -0.638572,0.42076 -1.156563,1.07234 -1.448348,1.77921 -0.317318,0.76873 -0.205375,1.65056 -0.30806,2.47585 0.471062,1.01547 0.734619,2.15612 1.413187,3.04642 2.245916,2.9467 6.232163,5.53454 9.309196,7.25046 8.151449,4.5457 17.092469,7.43213 26.027239,9.9685 6.98927,1.60152 8.67091,3.13161 15.60434,0.38654 0.68692,-0.27197 1.30015,-1.24575 1.06232,-1.94522 -0.44021,-1.29469 -1.78247,-2.07858 -2.75674,-3.03817 -2.64889,-2.60894 -5.82346,-5.12215 -8.67092,-7.47907 -0.83319,-0.64217 -7.45082,-6.03265 -9.1187,-6.31835 -2.57899,-0.44178 -6.39717,0.0123 -7.61873,2.82241 -0.94493,2.17375 -0.92583,7.12027 -1.02337,9.12401 -0.0131,6.10038 -0.0509,6.53034 0.0903,12.74377 0.0467,2.05683 0.11313,4.11319 0.18577,6.16927 0.0413,1.16852 -0.0144,5.97361 0.77683,7.66224 0.20537,0.43831 0.75633,0.60425 1.13449,0.90638 1.3328,-0.74089 2.75447,-1.34066 3.99839,-2.22265 0.59559,-0.4223 2.17818,-3.20439 2.36405,-3.50685 2.08476,-3.39231 4.23025,-6.74695 6.50737,-10.01443 6.3259,-8.81553 -0.85222,0.96812 5.71714,-7.33056 0.3071,-0.38793 0.37925,-0.98436 0.79405,-1.25406 1.94653,-1.26566 4.11712,-1.7561 6.39198,-1.10296 1.12714,0.32361 2.06645,1.10927 3.09967,1.66391 1.91795,1.97561 3.10681,2.6118 3.70438,5.41398 0.57699,2.70566 -0.67856,5.91949 -2.30408,8.02784 -0.50997,0.66146 -1.17725,1.18511 -1.76587,1.77767 2.10761,-0.9485 0.0184,0.0681 -0.94824,-0.0116 -0.66827,-0.0551 -1.33731,-0.31546 -1.88506,-0.70222 -0.77557,-0.54761 -1.43821,-1.26454 -1.99227,-2.03551 -2.09273,-2.91202 -2.47152,-4.88397 -3.69377,-8.34105 -0.38087,-1.93447 -0.8977,-3.84706 -1.14261,-5.8034 -0.49463,-3.95124 -0.51826,-7.27828 0.25054,-11.16165 0.20818,-1.0516 0.61328,-2.05887 1.02933,-3.04685 0.25982,-0.61698 1.60698,-1.48849 0.98969,-1.74759 -0.86345,-0.36243 -1.7308,0.71551 -2.5962,1.07327 0.17225,0.0506 0.38707,0.0276 0.51675,0.1517 1.59015,1.52222 -0.64301,0.30505 1.47385,1.83249 2.12657,1.53445 4.2375,0.86999 6.56572,0.20914 1.82973,-0.93432 3.7055,-1.78349 5.48918,-2.80297 1.79934,-1.02844 8.07999,-5.34113 9.50478,-6.35091 3.32983,-2.35992 6.82048,-4.87214 9.8398,-7.64567 1.02078,-0.93768 1.90965,-2.00953 2.86447,-3.0143 0.34091,-0.69814 0.89014,-1.32888 1.02272,-2.09441 0.19236,-1.11072 -0.8967,-1.43662 -1.66073,-1.47665 -2.05921,-0.10786 -4.47829,1.74281 -5.80207,2.54693 -0.45393,0.27574 -0.81196,0.68487 -1.21795,1.0273 -0.71342,1.09948 -1.08827,1.40138 -1.24442,2.75799 -0.18925,1.64416 0.46543,3.21594 1.94133,4.05425 0.49578,0.2816 1.07909,0.36874 1.61864,0.55311 0.6596,-0.008 1.32478,0.0608 1.97881,-0.0251 2.86217,-0.37626 4.84572,-1.53052 7.49975,-3.0065 3.92387,-2.18219 6.94704,-5.63365 9.87196,-8.94634 2.89863,-3.83734 4.20497,-5.19241 6.35001,-9.47398 0.56125,-1.12028 2.36661,-4.24385 1.32521,-6.02168 -0.6088,-1.03931 -2.54015,-0.43793 -3.20895,-0.35024 -3.87866,0.92324 -1.17091,0.24352 -5.42585,1.41842 -0.0895,0.0247 -5.75586,1.55216 -6.00888,1.65889 -1.7081,0.72051 -3.36103,1.5754 -4.96892,2.49814 -0.41033,0.23548 -0.69958,0.63708 -1.04937,0.95562 -0.12848,0.3478 -0.31903,0.67862 -0.38546,1.0434 -0.0713,0.39132 -0.004,0.79574 -0.0218,1.19308 -0.0229,0.50202 -0.038,1.00568 -0.1013,1.50423 -0.25687,2.02394 -0.8725,3.90527 -2.02666,5.60611 -0.51954,0.58705 -1.16521,1.08309 -1.55863,1.76115 -0.0827,0.14251 0.62606,-0.001 0.48665,0.0864 -2.40795,1.51677 -5.54221,2.21431 -8.29611,1.20346 -1.06433,-0.39068 -1.96065,-1.13911 -2.94097,-1.70867 -1.01466,-0.92892 -2.11853,-1.76894 -3.04398,-2.78676 -2.17073,-2.38739 -4.26294,-5.57185 -5.65225,-8.4623 -0.7387,-1.53685 -1.40574,-3.12324 -1.84771,-4.77013 -0.32693,-1.21822 0.27311,-2.71849 -0.44102,-3.75818 -0.40651,-0.59183 -1.43593,-0.0131 -2.1539,-0.0197 0.52134,-0.23079 0.99401,-0.68048 1.56402,-0.69237 1.95503,-0.0408 4.25017,1.56491 5.62323,2.57024 1.30734,0.95721 2.53799,2.01811 3.74357,3.10069 4.17903,3.75263 4.30915,4.18288 8.03876,8.49185 2.04953,3.10403 3.68799,4.91765 4.5734,8.51854 0.24992,1.01641 0.31851,2.10035 0.16499,3.13571 -0.12352,0.83303 -0.78376,1.51046 -0.97552,2.33048 -0.039,0.16693 0.49124,0.30408 0.34039,0.38554 -1.00379,0.5421 -2.14467,0.77866 -3.21701,1.16799 -1.42823,0.0853 -2.85571,0.32761 -4.2847,0.25602 -3.2743,-0.16405 -7.7849,-1.23904 -10.84362,-2.1983 -4.83225,-1.51546 -9.52629,-3.56079 -13.56292,-6.65834 -1.46808,0.38993 -3.0726,0.43899 -4.40424,1.16978 -0.36087,0.19804 -0.0248,0.82584 0.0228,1.23473 0.0775,0.66676 0.17834,1.33431 0.35139,1.98287 0.47968,1.79765 1.15571,3.52053 2.41676,4.94496 0.80239,0.90634 1.83615,1.57788 2.75422,2.36681 1.42399,0.54377 2.77688,1.33447 4.27198,1.63129 3.70766,0.73607 8.53215,0.2762 12.19279,-0.15384 4.79194,-0.56294 6.94786,-0.77921 11.09747,-3.80215 0.26869,-0.19573 -0.39772,-0.53275 -0.59658,-0.79912 -1.10924,0.0515 -2.22607,0.0151 -3.32772,0.15446 -3.64565,0.46135 -7.93061,1.49671 -11.38746,2.56883 -5.00001,1.55074 -9.01152,3.11027 -13.45965,6.05579 -1.18857,0.78706 -2.05862,1.9725 -3.08793,2.95875 0.80149,-0.0347 1.64847,0.16438 2.40448,-0.10402 0.22638,-0.0804 -0.33123,-0.38103 -0.37074,-0.61798 -0.15256,-0.91474 -0.0925,-1.85359 -0.19517,-2.77527 -0.26413,-2.37111 -0.68317,-5.12417 -1.55016,-7.35236 -0.50147,-1.28878 -1.26233,-2.46093 -1.8935,-3.6914 -0.96946,-0.84686 -1.7641,-1.95095 -2.90838,-2.54058 -2.27092,-1.17016 -4.62772,-0.69378 -6.88613,0.0724 -1.227,0.41623 -2.34224,1.10979 -3.53134,1.62438 -4.72214,2.04354 -2.98505,1.42316 -8.24264,2.26713 -3.919391,-0.53036 -5.882957,-0.33098 -9.287954,-2.63049 -1.060918,-0.71647 -1.653169,-1.97288 -2.636425,-2.79269 -0.596294,-0.49717 -2.430198,-0.43688 -2.046583,-1.11185 1.813081,-3.19014 9.068911,-1.09276 10.553964,-0.91669 2.833588,1.40369 5.837078,2.50682 8.500748,4.21106 5.31979,3.40365 10.67569,7.65249 13.10431,13.77653 0.64723,1.63207 -0.0421,3.52047 0.15762,5.2648 0.0567,0.49553 0.88234,0.95738 0.60196,1.36988 -0.4352,0.64029 -1.42835,0.59777 -2.14252,0.89665 -1.94143,-0.0582 -2.39522,0.16384 -4.15367,-0.8427 -3.10489,-1.77723 -4.51775,-5.35361 -6.17697,-8.30655 -1.15014,-2.2459 -2.74327,-5.77024 -4.64248,-7.467 -2.51061,-2.243 -5.221238,-2.03178 -8.337543,-1.78963 -1.192807,0.29798 -2.440022,0.42958 -3.578423,0.89393 -1.945656,0.79365 -3.821324,1.76959 -5.618946,2.85771 -1.499346,0.90757 -3.668286,2.49656 -3.845877,4.55807 -0.06023,0.69925 0.228105,1.47976 0.722865,1.97755 0.637072,0.64097 1.621684,0.79811 2.432527,1.19717 1.216556,0.1035 2.430732,0.38058 3.649673,0.31051 4.160752,-0.23918 7.014061,-1.61457 10.803191,-3.57248 3.499353,-1.80817 6.365473,-3.81244 8.887413,-6.87708 1.00137,-1.21685 1.64822,-2.68648 2.47232,-4.02972 -0.15724,-1.04737 -0.0296,-2.17971 -0.47172,-3.14212 -0.3604,-0.78451 -1.1289,-1.32491 -1.81885,-1.84386 -2.52693,-1.90063 -6.07669,-2.73307 -9.161598,-2.96015 -1.26429,-0.0931 -2.535417,-0.004 -3.803126,-0.006 -1.276083,0.20537 -2.55656,0.38508 -3.828246,0.61613 -2.694011,0.48946 -5.363236,1.10787 -8.053339,1.61838 -1.1982,0.22738 -2.39667,0.45627 -3.602263,0.64049 -0.837496,0.12797 -1.737008,-0.017 -2.524392,0.2957 -1.450604,0.57616 -2.710818,1.548 -4.066225,2.32201 0.276413,-0.14824 0.536985,-0.33084 0.829244,-0.4447 0.99305,-0.38688 3.600595,-1.10108 4.443177,-1.3122 4.168505,-1.04445 8.404389,-1.82238 12.693748,-2.15346 3.514388,-0.0619 8.29292,-0.66903 11.3369,1.69469 1.86238,1.44617 1.9045,3.9509 1.99944,6.05646 -0.3326,2.28079 -0.25249,3.37858 -1.56442,5.41336 -0.48917,0.75868 -2.50712,3.02919 -3.643394,3.59748 -4.365726,2.18351 -5.38493,2.07716 -10.27163,3.16415 -5.175541,0.25346 -7.337864,0.72749 -12.466788,-0.50847 -1.896073,-0.45691 -3.770601,-1.10096 -5.492303,-2.01726 -2.779387,-1.47921 -5.4092,-4.15964 -7.109854,-6.7827 -0.805022,-1.24165 -1.301835,-2.65786 -1.952752,-3.98679 -0.308798,-1.27785 -0.735558,-2.53285 -0.926399,-3.83356 -0.149606,-1.01965 0.592558,-2.31784 -0.08949,-3.09042 -0.546751,-0.61933 -1.981611,-0.47557 -2.471121,0.18992 -0.399786,0.54351 1.374005,0.1706 1.960186,0.50469 2.873748,1.6379 6.044634,5.13742 8.204256,7.24549 1.96252,2.22075 3.962929,4.40857 5.887556,6.66223 2.918542,3.4175 11.557587,13.97213 14.155615,17.27393 4.833567,6.14291 8.076237,10.0517 11.600628,16.86316 0.83259,1.60913 1.30572,3.38009 1.95859,5.07013 0.71563,-0.0959 2.66833,0.21183 2.14691,-0.28761 -0.67529,-0.6468 -1.88739,-0.0675 -2.78636,-0.32487 -1.36632,-0.39112 -2.663714,-1.00035 -3.950517,-1.60363 -4.703069,-2.20487 -9.175792,-4.94445 -13.155904,-8.28768 -0.651428,-0.74188 -1.302858,-1.48376 -1.954286,-2.22564 -0.941806,0.13696 -2.185956,1.11574 -2.825419,0.41087 -0.558999,-0.61618 1.520967,-0.67478 2.282888,-1.0089 1.028129,-0.45086 2.08429,-0.84167 3.087248,-1.34605 4.746599,-2.38705 5.205992,-2.78829 9.281679,-5.34347 2.080027,-1.67745 4.876178,-3.39455 5.886801,-6.11622 0.91647,-2.46811 -0.30873,-4.21123 -1.753615,-6.03854 -0.743495,-0.94028 -5.044348,-5.11389 -5.833952,-5.89013 -1.628801,-1.91604 -3.318988,-3.40098 -3.993687,-5.9158 -0.215458,-0.80308 -0.138284,-1.67022 -0.02746,-2.49429 0.223306,-1.66045 1.031074,-3.42634 2.003298,-4.76828 0.563211,-0.7774 1.286087,-1.42555 1.92913,-2.13832 0.597289,-1.30005 0.291772,-0.87069 3.234902,-1.51986 3.672874,-0.81013 7.789474,1.3e-4 11.066514,1.7751 1.05183,0.56972 1.93325,1.40934 2.89989,2.11401 0.48843,0.82268 1.1901,1.55172 1.46532,2.46803 0.26414,0.87947 0.22648,1.84301 0.10279,2.75291 -0.28096,2.06674 -1.41938,4.28048 -2.60607,5.935 -0.14989,0.20899 -3.15561,3.64918 -3.86095,4.45777 -1.27482,0.69697 -2.49512,1.50459 -3.82447,2.0909 -3.559872,1.57009 -7.885841,2.68623 -11.692396,1.20949 -2.745457,-1.06509 -3.412996,-2.39567 -5.249635,-4.5424 -1.785742,-3.29276 -1.779471,-2.95905 -2.999685,-6.46907 -0.305387,-0.87846 0.05691,-2.30958 -0.799091,-2.67322 -4.497967,-1.91075 -3.572857,0.71521 -3.68245,2.39393 -0.08154,1.24903 -0.237527,2.49208 -0.356291,3.73813 -0.661368,4.19609 -0.798933,5.88288 -2.033931,10.0911 -1.559407,5.31364 -3.873746,10.34025 -7.081007,14.866 -0.856011,1.20791 -1.864571,2.30013 -2.796854,3.4502 0.07473,0.23785 0.385717,0.52365 0.224181,0.71356 -0.46672,0.5487 -2.005714,1.36524 -2.885668,0.97969 -0.845928,-0.37065 -1.066305,-1.77522 -1.106281,-2.467 -0.04251,-0.73565 0.07904,-1.47163 0.11856,-2.20745 0.536567,-2.61515 0.542735,-3.28145 1.665333,-5.85525 1.878052,-4.30585 4.805875,-8.03723 7.925744,-11.50213 0.355632,-0.46688 1.534176,-1.71815 1.578144,-2.57201 0.03012,-0.58501 -0.686712,-0.59909 -1.005662,-0.66888 -0.279001,-0.061 -0.56551,-0.0904 -0.839764,-0.17007 -0.315047,-0.0916 -0.61522,-0.22819 -0.92283,-0.34229 -0.300625,-0.22061 -0.653809,-0.38342 -0.901872,-0.66181 -1.147823,-1.28818 -1.444955,-3.66263 -1.699947,-5.26647 -0.419746,-2.6401 -0.443873,-3.43155 -0.695807,-6.17252 -0.0594,-0.91255 -0.346662,-5.67518 -0.497578,-6.65384 -0.505656,-3.27906 -1.847506,-5.61803 -4.085122,-8.00317 -2.030973,-1.84084 -1.362212,-1.3275 -3.575391,-2.96046 -0.566378,-0.4179 -1.139878,-0.82612 -1.714862,-1.23209 -0.470001,-0.33185 -1.598793,-0.98687 -1.976023,-1.57699 -0.112215,-0.17554 -0.08679,-0.40755 -0.130185,-0.61133 0.16442,-0.25234 0.29918,-0.52671 0.493255,-0.75703 0.264422,-0.3138 1.273392,-0.76937 0.874651,-0.86631 -0.554442,-0.13478 -1.787059,1.22364 -1.562502,0.6991 0.246026,-0.5747 1.075206,-0.64437 1.647129,-0.89678 1.862162,-0.82183 2.056286,-0.70422 4.077004,-0.98703 1.257565,0.12993 3.591558,0.13214 4.186016,1.68216 0.448445,1.1693 -0.711788,2.58413 -1.286854,3.43565 -1.056095,1.35134 -0.972143,1.30894 -2.162273,2.56683 -1.153266,1.21893 -2.077995,1.8667 -2.463424,3.57602 -1.113444,5.32338 -2.067084,10.70985 -2.329426,16.14933 0.203737,3.39137 0.159363,6.01854 1.992915,9.02449 0.335645,0.55027 0.729914,1.08096 1.218256,1.50164 0.372856,0.3212 0.832297,0.78924 1.311627,0.67774 1.507283,-0.3506 2.805205,-1.30772 4.207809,-1.96158 0.409892,-0.27969 0.863168,-0.50454 1.22968,-0.83906 0.934987,-0.85338 1.778137,-2.06826 2.125368,-3.29318 0.839637,-2.96195 -0.197672,-5.6164 -1.389065,-8.28567 -0.633396,-0.98879 -1.181788,-2.03751 -1.900192,-2.96637 -1.807734,-2.33733 -4.766022,-5.00345 -7.556712,-6.10369 -0.748808,-0.29522 -1.560716,-0.69307 -2.352114,-0.54624 -1.70444,0.31623 -3.232036,1.25475 -4.848055,1.88212 -1.273178,0.99552 -1.884278,1.25555 -2.645138,2.78984 -1.177602,2.37466 -1.213689,5.54204 -0.609849,8.05943 0.276733,1.15369 0.783022,2.2399 1.174531,3.35985 1.903034,2.8867 2.186895,3.90777 5.144103,5.94181 2.390664,1.64436 4.972963,2.48326 7.800827,2.99104 1.304234,0.23419 2.633477,0.39116 3.958344,0.36657 1.07869,-0.02 2.131912,-0.33293 3.197868,-0.4994 1.146312,-0.61675 5.716108,-2.10789 6.337762,-4.5345 0.184418,-0.71987 -0.03625,-1.50382 -0.251351,-2.21512 -0.274227,-0.90684 -0.728858,-1.75427 -1.197901,-2.57741 -1.37047,-2.40508 -2.211298,-3.18033 -4.007408,-5.27318 -0.73719,-0.64849 -1.44984,-1.32599 -2.21157,-1.94546 -0.597639,-0.48603 -1.092362,-1.35957 -1.862638,-1.3679 -1.562267,-0.0169 -3.054982,0.71349 -4.503454,1.29906 -0.185235,0.0749 -0.237207,0.40266 -0.147201,0.58104 0.477229,0.94578 3.494011,3.52567 3.687601,3.70432 7.405256,6.43671 14.797942,12.92137 21.406175,20.19654 1.916893,2.11036 3.798139,4.25991 5.53162,6.52335 1.336654,1.74529 2.442676,3.65569 3.664016,5.48353 0.459986,1.09515 0.430453,2.57174 1.379961,3.28544 0.679154,0.51048 2.164964,0.41919 2.524628,-0.35055 0.323273,-0.69185 -1.570538,0.10723 -2.285223,-0.16182 -1.239705,-0.46668 -2.323163,-1.27759 -3.438157,-1.99275 -3.499395,-2.2445 -4.551449,-3.2369 -7.827877,-5.86784 -1.05581,-1.07121 -2.218328,-2.04684 -3.167428,-3.21365 -0.614799,-0.75582 -0.696876,-1.94982 -1.491353,-2.51379 -0.54718,-0.38842 -2.287648,0.63846 -2.012905,0.0263 0.391136,-0.87156 1.691013,-0.89417 2.570152,-1.26796 1.781021,-0.75723 5.863759,-2.13296 7.584503,-2.72913 3.084751,-0.9684 4.778693,-1.57087 7.85885,-2.28648 0.725996,-0.16867 1.484358,-0.18955 2.200854,-0.39485 0.175454,-0.0503 0.542798,-0.48714 0.416709,-0.35518 -0.481738,0.50415 -1.513309,1.262 -1.932972,1.59159 -3.344368,2.71492 -6.710921,5.52912 -9.282949,9.02192 -0.694488,0.94311 -1.355272,1.92064 -1.885235,2.96511 -0.469818,0.92594 -0.732176,1.94326 -1.098264,2.9149 -0.180756,2.2127 -0.523703,2.96057 0.349554,5.0405 0.934566,2.22596 3.051635,3.68767 5.275167,4.41829 0.928352,0.30505 1.909326,0.41716 2.863988,0.62574 1.152932,0.0695 2.303774,0.20518 3.4588,0.20864 4.082197,0.0122 8.176927,-0.57043 12.085547,-1.74786 1.06192,-0.31989 2.12292,-0.66745 3.12417,-1.14445 1.70241,-0.81104 3.31067,-1.8065 4.966,-2.70976 -0.65549,0.36816 -1.25763,0.85398 -1.96647,1.10447 -0.17855,0.0631 0.10648,-0.39814 0.26422,-0.50292 1.05246,-0.69913 2.25547,-1.15403 3.30012,-1.86479 0.20172,-0.13725 -0.48066,0.13622 -0.72341,0.11165 -1.59815,-0.16179 -2.57091,-0.822 -4.08913,-1.51616 -1.28817,-0.88407 -2.60837,-1.7232 -3.86452,-2.65222 -4.06347,-3.00523 -7.54712,-5.9895 -11.423212,-9.2853 -2.352929,-2.00067 -4.709473,-3.99763 -7.026574,-6.03969 -4.075399,-3.59164 -8.011581,-7.33932 -12.124505,-10.88921 -3.440163,-1.72821 -4.416041,-3.43597 -7.898135,0.84555 -0.645732,0.79398 -0.26361,2.04522 -0.178173,3.06506 0.136072,1.62428 0.478536,3.22775 0.838528,4.81747 1.198279,5.2916 1.993974,7.06874 3.816426,12.28255 1.247598,2.72481 2.992123,7.24381 5.149985,9.66311 2.286643,2.56369 3.986681,1.20709 6.577079,-0.98554 1.063032,-0.8998 0.624406,-3.98502 0.601472,-4.80956 -0.742204,-5.67056 -1.546,-11.38697 -1.351751,-17.12247 0.02881,-0.85053 0.932968,-2.03133 0.251198,-2.54066 -0.724974,-0.5416 -1.7321,0.52489 -2.59815,0.78734 0.458319,0.0654 0.951394,0.009 1.374955,0.19616 1.058598,0.46707 4.856744,3.27457 5.382813,3.63979 5.334214,3.70324 10.806284,7.20692 16.480294,10.37102 7.43821,3.92919 7.10708,3.94724 14.72216,7.22324 5.43561,2.33839 6.11943,3.47243 12.03347,1.44651 2.17406,-0.74475 -17.13474,-1.94142 -6.43763,-2.46733 -3.1708,-1.30462 -11.80348,-4.87027 -14.73134,-6.0136 -1.28205,-0.50064 -12.17024,-4.85396 -14.462843,-4.72948 -2.176467,0.11817 -4.323741,1.12257 -6.074174,2.4214 -0.629621,0.46718 -0.218691,1.5527 -0.328036,2.32906 0.377513,0.89915 0.62788,1.863 1.132539,2.69745 3.050151,5.04339 8.403754,7.25827 14.035984,7.99126 1.60371,0.20872 3.23145,0.13973 4.84717,0.20959 1.49648,-0.22598 3.07495,-0.13967 4.48943,-0.67796 3.08765,-1.17502 6.48908,-2.8329 7.61067,-6.23711 0.89725,-2.72328 0.15804,-5.83423 -0.84317,-8.3639 -0.61582,-1.55594 -1.55465,-2.96375 -2.33198,-4.44563 -3.02172,-3.42966 -3.81234,-5.0876 -8.22381,-6.94868 -5.89249,-2.48586 -12.58112,-1.63373 -18.594467,-0.23686 -2.059035,0.4783 -4.055414,1.19466 -6.08312,1.79198 -0.522795,0.27578 -8.388995,4.04536 -9.820635,5.77393 -0.385733,0.46574 1.163111,-0.33319 1.736172,-0.52633 0.155898,-0.0525 -0.408104,0.25053 -0.48251,0.1038 -0.275307,-0.5429 -0.01791,-3.37532 -0.01119,-3.50351 0.246044,-2.01439 0.343813,-3.54855 0.959282,-5.50991 0.258434,-0.82357 1.18097,-1.54277 1.002953,-2.38739 -0.101645,-0.48226 -1.958806,0.16149 -1.466636,0.18744 4.340683,0.22894 -0.08092,-1.12503 5.227588,1.16062 1.244047,0.83199 2.539285,1.5921 3.732141,2.49595 2.476259,1.87631 5.889214,4.94176 7.91402,7.28817 1.535237,1.77909 3.535322,4.33989 4.015962,6.83505 0.0889,0.4613 -0.22311,0.91269 -0.33466,1.36903 0.58988,-0.27005 1.91913,-0.17884 1.76965,-0.81015 -0.14677,-0.61983 -1.24233,0.3185 -1.8785,0.35043 -2.509001,0.1259 -5.356553,-0.59927 -7.497643,-1.9015 -0.765882,-0.46582 -1.409631,-1.10779 -2.114447,-1.66168 -1.18283,-1.71547 -1.876989,-2.27729 -2.154592,-4.41642 -0.0963,-0.74207 0.45606,-1.5696 0.126304,-2.24132 -0.199924,-0.40725 -1.723723,0.0106 -1.340943,-0.23292 2.560252,-1.62872 5.139309,-0.50688 7.832006,-0.0601 2.008931,0.70932 4.058568,1.31246 6.026785,2.12795 4.22003,1.74848 9.67804,4.52785 13.44634,7.09001 2.92986,1.99209 6.03477,4.29048 7.72007,7.54767 0.38096,0.73629 0.35407,1.61976 0.5311,2.42965 -0.20896,0.56849 -0.3321,1.17638 -0.62688,1.70549 -0.59594,1.06966 -1.88282,2.28384 -2.77699,3.05091 -2.1693,1.86094 -4.60157,3.39477 -6.85026,5.15224 -0.82619,0.66352 -1.67255,1.30268 -2.47858,1.99056 -1.3736,1.17228 -2.77882,2.52033 -3.98046,3.87414 -0.51176,0.57655 -1.03443,1.15114 -1.45815,1.79517 -0.30541,0.4642 -1.26958,1.49678 -0.714,1.50634 1.23749,0.0213 2.27599,-0.97327 3.41398,-1.45991 0.28726,-0.3755 0.60389,-0.73025 0.86178,-1.12649 1.58482,-2.43504 2.95361,-5.01353 4.26331,-7.6019 3.10941,-6.14512 6.0576,-12.42117 7.61572,-19.16899 0.24535,-1.85286 0.58116,-3.69596 0.73606,-5.55856 0.11259,-1.35388 0.91768,-3.01741 0.0651,-4.07513 -0.70747,-0.8777 -2.265,0.11455 -3.38174,-0.0395 -0.14947,-0.0206 0.10946,-0.50263 0.21727,-0.39707 1.21455,1.18911 1.29684,3.29466 2.86256,4.21994 0.89859,1.11901 1.75498,2.27327 2.69579,3.35704 2.40975,2.77591 5.28401,5.73278 8.10646,8.06594 1.63593,1.35234 3.30711,2.6809 5.11683,3.78996 4.11467,2.52162 6.32876,2.96697 10.81368,4.43528 4.32179,0.28307 6.58116,1.33653 10.01854,-2.85537 1.91383,-2.33391 0.18397,-9.48497 -0.13241,-11.13776 -1.42246,-7.43111 -2.58825,-10.98847 -4.65055,-18.38736 -1.8658,-5.09555 -2.66797,-9.95722 -7.03854,-13.57763 -2.80365,-2.32242 -6.45525,-2.39319 -9.82393,-2.12857 -3.81464,0.29966 -8.50661,1.63132 -12.16247,2.53479 -5.41703,1.57071 -7.58183,1.80313 -12.56171,5.04933 -0.94093,0.61336 -1.90148,1.41754 -2.29081,2.47111 -0.79282,2.14543 2.54679,3.64775 3.54909,4.12606 1.55291,0.74107 3.22677,1.19614 4.84016,1.79421 2.13453,0.55282 4.24998,1.18535 6.40358,1.65847 5.18956,1.14008 11.07719,2.03349 16.34045,2.5684 2.24901,0.22857 12.92806,1.11007 15.70377,0.58493 2.34957,-0.44452 4.4626,-1.71976 6.6939,-2.57964 0.78685,-0.67115 1.77647,-1.15997 2.36053,-2.01345 0.40163,-0.58691 0.45642,-1.37548 0.4452,-2.08657 -0.0109,-0.68727 -0.25895,-1.3581 -0.50968,-1.99809 -0.78426,-2.00185 -2.40482,-3.90101 -3.67133,-5.60929 -0.79277,-0.98422 -1.62529,-1.93948 -2.27818,-3.02834 -0.18119,-0.30218 -0.0927,-1.0079 -0.44185,-0.96023 -1.17547,0.16052 -2.16286,0.97574 -3.24429,1.46361 0.24727,0.0135 0.51237,-0.0527 0.74181,0.0405 0.46537,0.18901 0.85808,0.52237 1.28713,0.78356 1.2228,1.2284 1.95774,1.7519 2.68413,3.41648 1.04789,2.40132 0.75618,5.06531 0.0315,7.50389 -0.25451,0.85645 -0.64178,1.66771 -0.96267,2.50156 -0.45253,0.72962 -1.20581,1.34383 -1.35756,2.18887 -0.0559,0.31146 1.13796,-0.0698 0.93362,0.17179 -0.48409,0.57237 -1.25579,0.87337 -1.98031,1.06578 -1.65926,0.44066 -3.48853,-0.0599 -4.95072,-0.81831 -0.96902,-0.50262 -1.79733,-1.23939 -2.69599,-1.85909 -0.81875,-0.94573 -1.74987,-1.80482 -2.45625,-2.83719 -3.01603,-4.40791 -4.71641,-11.16026 -4.00824,-16.46902 0.14403,-1.07971 0.59415,-2.09596 0.89123,-3.14394 -0.44247,0.0297 -1.74491,-0.0604 -1.32742,0.0891 0.69552,0.24913 1.52346,-0.0602 2.2049,0.22521 2.0712,0.86747 3.99876,3.19465 5.166,4.92002 2.61555,3.86619 2.7696,5.22515 4.38833,9.71146 0.37279,1.99503 0.91709,3.96554 1.11836,5.9851 0.38354,3.84846 0.077,7.55795 -0.75303,11.32031 -0.342,1.55016 -0.81573,3.07476 -1.38686,4.55589 -0.4157,1.07805 -1.75651,1.95482 -1.56293,3.09391 0.11501,0.67677 1.3499,-0.25054 2.02485,-0.3758 -0.26807,-0.078 -0.64587,-0.004 -0.80423,-0.23407 -0.69698,-1.01208 -0.82769,-3.95349 -0.89175,-4.78755 -0.27671,-3.60255 -0.34574,-7.2338 0.1035,-10.82649 0.0576,-0.73523 0.87914,-1.99351 0.17284,-2.2057 -1.22157,-0.36701 -2.46116,0.68933 -3.64573,1.16232 -0.45567,0.18194 -0.83137,0.5214 -1.24233,0.78942 -2.46616,1.60835 -4.89368,3.27632 -7.39439,4.83169 -2.50004,1.57247 -5.10199,3.05266 -7.40967,4.90801 -1.00695,0.80957 -2.13519,1.78817 -2.86953,2.86946 -0.42141,0.62051 -0.70472,1.32433 -1.05709,1.9865 -0.23193,0.8494 -0.53309,1.68287 -0.69579,2.54821 -0.42973,2.28558 -0.50803,4.96051 -0.55215,7.25261 -0.094,4.88301 0.12758,9.77205 -0.19437,14.65095 -0.11642,1.33609 -0.13303,2.68468 -0.34926,4.00829 -0.16123,0.98699 -1.09894,1.94989 -0.77885,2.89735 0.18088,0.53542 2.16607,0.0566 1.67961,-0.2311 -0.60343,-0.35683 -1.44994,0.23552 -2.10303,-0.0193 -2.95606,-1.15334 -4.68349,-3.96137 -6.62289,-6.2247 -1.36523,-2.29263 -2.8982,-4.49335 -4.09567,-6.87789 -1.83347,-3.651 -7.34392,-17.29896 -8.66229,-20.64447 -1.47867,-3.75228 -3.044,-7.47586 -4.32112,-11.30144 -2.594499,-7.77179 -2.575592,-8.92161 -3.768278,-15.92775 -0.943025,-0.0528 -2.497719,-1.04294 -2.829073,-0.15847 -0.329774,0.88027 1.582798,1.03688 2.253099,1.6959 1.305486,1.28351 2.418321,2.74945 3.647932,4.10582 1.59545,1.7599 3.16792,3.54251 4.82694,5.24261 6.04258,6.19223 6.06441,5.89763 12.89873,11.56866 7.33244,4.82342 6.96121,5.04533 14.72209,8.43705 1.88819,0.82519 3.72787,2.04416 5.78385,2.18236 2.07335,0.13938 4.14751,-0.61668 6.0783,-1.38497 0.43037,-0.17124 0.69077,-0.81439 0.578,-1.26364 -0.20396,-0.81256 -0.94423,-1.38413 -1.41634,-2.07619 -2.61881,-2.60419 -3.68867,-3.75342 -6.64737,-6.27812 -3.35925,-2.86649 -6.99593,-5.70043 -10.73268,-8.05143 -5.54698,-3.48991 -7.28239,-4.03321 -13.20794,-6.71385 -1.33887,-0.46101 -9.21475,-3.40379 -11.27639,-3.34184 -2.09265,0.0629 -4.140165,0.76929 -6.093216,1.52343 -0.612844,0.23664 -1.304536,0.72662 -1.412253,1.37467 -0.276588,1.66402 3.064795,4.91541 3.494378,5.42823 1.412034,1.37367 2.784021,2.78974 4.236101,4.12102 1.82395,1.67222 3.70247,3.28451 5.58855,4.88634 7.51322,6.38093 15.36338,12.34674 23.50709,17.90071 1.76692,-0.30812 3.6159,-0.30939 5.30077,-0.92436 0.29979,-0.10943 -0.24944,-0.59507 -0.44323,-0.84864 -0.53394,-0.69866 -1.14762,-1.33265 -1.7284,-1.99289 -3.46095,-3.93454 -6.99759,-7.80162 -10.48778,-11.71004 -2.16842,-2.42118 -7.23536,-8.1378 -9.53586,-10.47341 -2.72357,-2.76514 -6.91557,-6.93766 -10.84455,-8.08548 -0.76052,-0.22218 -1.57929,-0.13006 -2.36894,-0.19509 -1.49682,0.83154 -3.112237,1.47853 -4.490462,2.49462 -0.605033,0.44606 -0.949476,1.17063 -1.346687,1.80879 -2.081059,3.34347 -2.941537,7.28133 -5.087165,10.59075 0.448829,0.0175 1.732759,-0.17673 1.346489,0.0525 -0.525397,0.3118 -1.241185,0.42719 -1.818648,0.2277 -0.905396,-0.31278 -1.689127,-0.96427 -2.342153,-1.66508 -1.045617,-1.12213 -1.838327,-2.45761 -2.688793,-3.73401 -3.008204,-4.51478 -3.880806,-6.33928 -6.612509,-11.25339 -2.31715,-4.90617 -4.333185,-8.45688 -5.550474,-13.77278 -0.371131,-1.62074 -0.06954,-3.34633 -0.429885,-4.9695 -0.09739,-0.43868 -1.320702,-0.85745 -0.896792,-1.00653 3.757377,-1.3214 8.289348,0.77441 11.613182,1.70267 2.954919,1.14109 5.927206,2.23818 8.864756,3.42325 6.403268,2.58324 16.492521,6.89952 22.613441,9.75065 7.24171,3.37319 14.30484,6.78404 21.0043,11.15495 2.22155,1.4494 4.23273,3.19815 6.34909,4.79722 1.21219,1.24658 2.54935,2.38279 3.63658,3.73974 0.59785,0.74615 0.52039,2.09038 1.37624,2.51663 0.84383,0.42026 1.8669,-0.61238 2.79368,-0.43984 0.47102,0.0877 -0.77409,0.61178 -1.23856,0.72935 -1.43916,0.36429 -2.61973,-0.16544 -3.9841,-0.52756 -1.95801,-1.02189 -2.91872,-1.32435 -4.49139,-2.99283 -1.21033,-1.28405 -2.26309,-3.00858 -2.54084,-4.78971 -0.29405,-1.88567 0.25979,-2.51775 0.98364,-4.1271 -0.47266,0.0653 -1.57294,0.64718 -1.41796,0.19592 0.21216,-0.61774 1.0924,-0.72849 1.69078,-0.99029 0.65318,-0.28577 1.35742,-0.43692 2.04023,-0.64206 2.16304,-0.64982 4.3618,-1.188 6.48166,-1.97633 2.75962,-1.0407 2.56951,-0.87139 6.05507,-3.07048 0.4874,-0.30751 1.28547,-1.0275 0.93666,-1.77197 -0.41224,-0.87987 -2.34113,-1.5242 -2.89347,-1.78233 -3.43772,-1.45461 -6.87911,-2.90059 -10.31501,-4.3595 -0.73536,-0.31224 -5.61193,-2.41819 -6.69163,-2.79541 -0.59378,-0.20745 -1.21858,-0.31223 -1.82787,-0.46834 -1.45416,0.59814 -2.9561,1.09126 -4.36248,1.79443 -0.59821,0.29909 -0.45543,0.82076 -0.082,1.17099 1.10503,1.03646 2.89527,1.03966 4.22706,1.52362 2.71774,0.5961 5.43218,1.14349 8.1962,1.48734 0.51393,0.0639 4.67678,0.54182 5.40875,0.33888 1.66627,-0.462 3.17592,-1.36865 4.76388,-2.05297 0.26493,-0.29034 0.62089,-0.51853 0.79478,-0.87102 0.0707,-0.14335 0.33063,-2.29622 0.34113,-2.36021 0.0708,-0.43154 0.14199,-0.86448 0.25525,-1.28686 0.0977,-0.3642 0.75107,-1.10454 0.37589,-1.06691 -1.09764,0.1101 -2.01938,0.88869 -3.02908,1.33304 0.48521,-0.12086 0.31765,-0.17735 0.64492,0.5411 0.73076,1.60422 0.95651,3.37585 0.63854,5.10758 -1.049,2.4497 -0.55652,0.47191 1.48726,0.50374 0.52562,0.008 -0.89543,0.57303 -1.39592,0.73383 -2.09552,0.6733 -4.26331,0.20826 -6.26998,-0.49332 -0.69455,-0.37724 -1.43029,-0.68694 -2.08364,-1.13173 -1.22569,-0.83444 -2.34256,-1.98365 -3.19551,-3.19296 -0.37074,-0.52563 -0.7039,-1.0839 -0.95985,-1.674 -0.16206,-0.37362 0.12487,-1.20874 -0.2819,-1.1888 -1.12658,0.0553 -2.06719,0.90312 -3.10079,1.35467 0.30907,0.18872 0.66933,0.31192 0.92723,0.56615 0.79615,0.78484 2.01803,2.72934 2.50676,3.62242 1.24669,2.27815 2.08636,4.66861 2.21857,7.28075 -0.0459,1.59402 0.0614,2.36116 -0.43229,3.84973 -0.12512,0.37727 -0.94836,1.06893 -0.55106,1.05746 0.88618,-0.0256 1.59152,-0.78631 2.41634,-1.11131 0.63289,-0.24937 -2.51852,1.44381 -1.90049,0.74347 -0.41245,0.0557 -0.82329,0.125 -1.23735,0.16708 -2.06036,0.20941 -4.1565,0.10314 -6.19141,0.5379 -0.84355,0.24156 -1.65704,0.55828 -2.49753,0.80827 -1.49012,0.44323 -3.01757,0.70647 -4.57436,0.75861 -0.75648,-0.009 -1.51422,0.0177 -2.26945,-0.0269 -3.93469,-0.23203 -7.97122,-1.2021 -11.39345,-3.2183 -0.92441,-0.54462 -1.75073,-1.24078 -2.62609,-1.86117 -0.73682,-0.78957 -1.55148,-1.5131 -2.21046,-2.36871 -2.46761,-3.20388 -4.24425,-7.65964 -3.65631,-11.76219 0.10865,-0.75814 0.4366,-1.46824 0.65489,-2.20236 0.35572,-0.47123 1.37017,-0.90696 1.06716,-1.4137 -0.28255,-0.47253 -1.94386,0.35429 -1.50324,0.68441 0.48723,0.36504 1.15506,-0.41317 1.75859,-0.49309 2.4894,-0.32966 4.9994,0.36324 7.35002,1.0708 2.08583,0.92398 2.86509,1.09443 4.61783,2.51977 1.74872,1.42208 2.91098,3.26212 3.40855,5.46082 0.14522,0.64171 0.15687,1.30649 0.2353,1.95973 -0.0221,0.61797 -0.0118,1.23797 -0.0663,1.85393 -0.19046,2.15012 -0.86717,4.27104 -2.06462,6.07129 -0.15217,0.16174 -0.65834,0.57787 -0.45652,0.48521 1.00038,-0.45933 1.9295,-1.0603 2.88799,-1.60163 0.13283,-0.075 -0.266,0.15338 -0.41046,0.20238 -0.67268,0.22819 -1.40682,0.12155 -2.0953,0.24893 -4.57567,0.41464 -9.15576,0.82091 -13.75017,0.95187 -0.12313,-0.002 -4.37176,0.0337 -5.01464,-0.29239 -0.26294,-0.13336 -0.13536,-0.57391 -0.20396,-0.86065 -0.19589,-0.81886 -0.397418,-1.63684 -0.542502,-2.46681 -0.241258,-1.36498 -0.460174,-2.74601 -0.433361,-4.1367 0,0 -3.518191,1.82812 -3.518191,1.82812 z"
         inkscape:export-xdpi="5.7586842"
         inkscape:export-ydpi="5.7586842" />
    </g>
  </g>
</svg>
